<?xml version="1.0" encoding="UTF-8"?>
<svg version="1.1" viewBox="0 0 258.67 258.67" xml:space="preserve" xmlns="http://www.w3.org/2000/svg"><g transform="matrix(1.3333 0 0 -1.3333 0 258.67)"><g transform="scale(.1)" fill-rule="evenodd"><path d="m2.5977 1933.2h1927.6v-1927.6h-1927.6v1927.6" fill="none"/><path d="m966.52 1848.1-1.813-0.1c-12.578-0.35-321.47-10.54-485.53-145.39l-10.078-8.29s101.33-185.2 122.04-223.03h-148.74v-1050.7c0-2.492 2.868-248.44 250.66-248.44h225.11c12.887-23.664 52.863-81.52 135.61-81.52h19l-3.51 18.664c-2.59 13.754-3.88 28.465-3.88 40.453 0 10.922 1.13 19.324 3.27 22.989 8.17-0.067 63.56-0.465 63.56-0.465h107.48c247.78 0 250.66 245.95 250.66 248.44v1050.7h-148.75c20.71 37.84 122.05 223.04 122.05 223.04l-10.08 8.28c-164.06 134.84-472.63 145.03-485.69 145.4l-0.688 0.02-0.687-0.05" fill="#e2ba42"/><path d="m966.08 1816.6s0.824 0.05 1.508 0.09c8.305-0.28 298.54-11.27 455.56-130.57-11.91-21.74-134.7-246.14-134.7-246.14h170.39v-1019.1c-0.03-8.832-3.12-216.93-219.14-216.93h-107.43c-0.14 0-70.09 0.508-70.09 0.508l-1.95-0.492c-20.99-5.25-26.59-30.187-26.59-55.254 0-8.57 0.66-17.141 1.58-24.957-66.275 9.512-91.572 67.656-92.7 70.348l-4.047 9.664-10.508 0.062h-234.91c-216.02 0-219.12 208.1-219.15 216.95v1019.1h170.38s-122.78 224.39-134.68 246.13c158.49 120.43 453.44 130.53 456.47 130.61" fill="#31328f"/><path d="m778.94 323.03h-9.738s-12.824-47.851-14.301-53.371c-1.879 5.43-18.48 53.371-18.48 53.371h-12.516l-19.035-71.023h11.027s12.879 48.051 14.348 53.527c1.895-5.351 18.941-53.527 18.941-53.527h12.008l19.035 71.023h-1.289" fill="#e2ba42"/><path d="m850.62 323.03h-13.031s-37.547-29.004-41.692-32.218c1.266 4.742 8.633 32.218 8.633 32.218h-11.148l-19.035-71.023h11.144l6.649 24.789s10.972 8.094 12.687 9.371c0.93-2.109 15.078-34.16 15.078-34.16h14.371s-18.5 40.578-19.129 41.961c1.215 0.906 38.403 29.062 38.403 29.062h-2.93" fill="#e2ba42"/><path d="m877.8 262.1c3.426 3.187 55.008 51.281 55.008 51.281l2.402 8.402 0.332 1.246h-53.367l-2.699-10.093h38.105c-3.394-3.2-55.051-51.762-55.051-51.762l-2.465-9.168h56.45l2.707 10.094h-41.422" fill="#e2ba42"/><path d="m974.56 323.03h-11.078l-45.786-71.023h11.934s12.473 19.805 13.031 20.68h25.664c0.133-1.664 1.672-20.68 1.672-20.68h12.242l-6.781 71.023h-0.898zm-7.016-40.742h-18.828c1.57 2.492 14.172 22.492 16.687 26.481 0.372-4.621 1.997-24.696 2.141-26.481" fill="#e2ba42"/><path d="m1053.9 320.97c-4.13 2.582-9.54 3.906-16.1 3.906-9.52 0-18.29-3.371-26.06-10.035-8.11-6.922-13.82-16.387-16.964-28.106-3.18-11.851-2.407-21.343 2.269-28.191 4.595-5.586 11.105-8.387 19.415-8.387 6.36 0 11.99 1.199 16.75 3.574 0 0.012 5.82 4.122 8.76 6.2-0.03-2.356-0.09-7.926-0.09-7.926h7.79l10.43 38.894h-32.33l-2.6-9.722h21.35c-2.21-7.121-5.49-12.539-9.96-15.785-4.77-3.493-10.16-5.262-16.02-5.262-7.62 0-12.28 2.34-14.26 7.141-2.05 4.921-2 11.46 0.13 19.445 2.48 9.262 6.48 16.324 11.87 20.973 5.36 4.632 11.11 6.972 17.09 6.972 5.03 0 8.93-1.094 11.59-3.219 2.58-2.078 3.78-5.492 3.55-10.156l-0.05-1.031h11.16l0.09 0.879c0.13 1.246 0.19 2.43 0.19 3.57 0 7.508-2.68 12.969-8 16.266" fill="#e2ba42"/><path d="m1133.5 303.18c0.61 2.277 0.92 4.371 0.92 6.261 0 5.11-2.21 8.86-6.59 11.168-3.08 1.602-7.32 2.418-12.62 2.418h-32.09l-19.04-71.023h11.51s7.59 28.266 7.96 29.664h19.85c3.5 0 5.97-0.383 7.31-1.141 2.21-1.289 2.85-3.922 1.95-8.011l-2.48-11.555-1.11-5.57c0-0.016 0.09-3.559 0.09-3.559l0.95 0.172h12.38l0.85 3.109-0.73 0.356c-0.34 0.164-1.35 0.66-1.35 3.23v0.106c0 0.015 0.88 5.644 0.88 5.644l2.12 9.266c0.48 2.121 0.72 3.937 0.72 5.476 0 1.586-0.26 2.875-0.77 3.895-0.78 1.551-2.49 2.691-4.3 3.781 3.04 1.559 5.87 3.356 8.07 5.758 2.53 2.754 4.38 6.293 5.52 10.555zm-20.3 9.754c2.9 0 5.09-0.43 6.51-1.262 1.74-1.047 2.61-2.738 2.61-5.109 0-1.122-0.2-2.399-0.57-3.829-1.15-4.281-3.11-7.261-5.79-8.847-2.76-1.664-6.21-2.492-10.24-2.492h-19.57c0.58 2.152 5.43 20.246 5.77 21.539h21.28" fill="#e2ba42"/><path d="m1160.7 312.57h40.99l2.8 10.461h-52.13l-19.03-71.023h52.74l2.71 10.094h-41.6c0.58 2.152 5.39 20.125 5.73 21.418h37.92l2.71 10.089h-37.92c0.57 2.11 4.74 17.68 5.08 18.961" fill="#e2ba42"/><path d="m1262.6 304.7c0.45 1.727 0.69 3.387 0.69 4.938 0 2-0.37 3.863-1.13 5.558-2.28 5.199-7.75 7.828-16.26 7.828h-30.53l-19.03-71.023h30.56c9.34 0 17.02 2.816 22.8 8.371 3.88 3.707 6.46 7.938 7.71 12.539 0.56 2.106 0.84 4.047 0.84 5.832 0 2.957-0.77 5.461-2.32 7.492-1.12 1.477-3.34 2.727-5.7 3.907 1.75 1.078 5.49 3.371 5.49 3.371 3.35 2.91 5.68 6.679 6.88 11.187zm-22.62 8.598c3.94 0 6.8-0.414 8.49-1.211 2.03-0.969 3.03-2.586 3.03-4.926 0-0.922-0.15-1.941-0.46-3.078-1.13-4.219-3.46-7.063-7.15-8.68-2.38-1.027-5.51-1.551-9.32-1.551h-15.87c0.57 2.122 4.87 18.172 5.21 19.446h16.07zm-10.77-51.203h-19.02c0.58 2.152 5.63 20.968 5.97 22.277h17.94c3.79 0 6.72-0.461 8.71-1.367 2.63-1.184 3.94-3.125 3.94-5.91 0-0.953-0.16-2.012-0.47-3.168-0.74-2.789-2.12-5.184-4.09-7.153-3.15-3.109-7.52-4.679-12.98-4.679" fill="#e2ba42"/><path d="m635 1280.3 18.07 34.69h-36.144l-17.844 34.25-20.695-34.25h-37.438l18.715-30.98-20.793-34.43h41.594l20.695-34.25 17.836 34.25h32l-15.996 30.72" fill="#e2ba42"/><path d="m1310.5 1382.5c-5.73 0-11.3-0.64-16.68-1.81 33.51-9.09 58.2-39.65 58.2-76.05 0-37.85-26.66-69.45-62.23-77.1 6.61-1.81 13.52-2.84 20.71-2.84 43.57 0 78.9 35.32 78.9 78.9 0 43.57-35.33 78.9-78.9 78.9" fill="#e2ba42"/><path d="m742.24 1421 126.3 0.53c-2.621 9.03-4.102 18.54-4.102 28.41 0 5.37 0.539 10.61 1.344 15.75-63.535-17.33-120.33-43.21-123.55-44.69" fill="#e2ba42"/><path d="m1067 1463c0.55-4.28 0.93-8.61 0.93-13.04 0-9.58-1.41-18.81-3.89-27.59l109.78 0.59s-48.5 22.96-106.82 40.04" fill="#e2ba42"/><path d="m620.2 1580c9.356 4.05 27.973 11.89 52.777 21.27l-12.144 26.73c-29.633-12.13-49.211-21.57-53.981-23.91l13.348-24.09" fill="#e2ba42"/><path d="m842.26 1628c-6.477-1.45-12.934-2.93-19.34-4.51l9.992-44.22c6.906 1.6 13.715 3.08 20.418 4.47l-11.07 44.26" fill="#e2ba42"/><path d="m1333.9 1637.4 26.36 45.13s-22.14 15.78-65.88 34.37l-24.19-53.21c30.83-11.5 53.28-21.47 63.71-26.29" fill="#e2ba42"/><path d="m1049.7 1589.2 5.63 46.05c-30.15 5.22-60.451 8.5-89.135 8.5-31.816 0-66.047-4.19-100.13-10.75l5.628-45.68c34.317 6.23 65.684 9.47 93.473 9.47 26.899 0 55.476-2.86 84.536-7.59" fill="#e2ba42"/><path d="m650.95 1649.7-24.402 53.7c-37.5-17.49-57.391-31.26-57.391-31.26l26.238-47.38c3.571 1.8 23.84 11.84 55.555 24.94" fill="#e2ba42"/><path d="m785.82 1695.7-11.734 57.79c-33.48-7.77-63.195-16.82-88.883-26.05l18.899-57.34c24.539 8.74 52.16 17.64 81.718 25.6" fill="#e2ba42"/><path d="m1098.1 1626.6c-6.48 1.49-12.98 2.93-19.54 4.27l-11.18-44.74c6.88-1.29 13.75-2.67 20.65-4.15l10.07 44.62" fill="#e2ba42"/><path d="m974.07 1723.4c30.8 0 61.46-2.51 91.23-6.62l6.64 54.33c-30.31 3.03-62.87 4.83-97.87 4.83-44.906 0-86.465-3.25-124.59-8.55l6.852-55.58c38.332 7.08 78.23 11.59 117.73 11.59" fill="#e2ba42"/><path d="m1260.3 1641.9-15.69-34.54-3.2 0.97c29.15-10.68 51.02-19.84 61.33-24.31l19.18 32.85c-10.89 4.92-32.51 14.29-61.62 25.03" fill="#e2ba42"/><path d="m1217.5 1681.8 19.41 56.26c-25.84 8.17-55.75 15.93-89.57 22.31l-11.34-56.46c29.28-6.61 56.74-14.29 81.5-22.11" fill="#e2ba42"/><path d="m740.33 1528.5c6.715-14.93 19.692-43.75 26.293-58.44 7.82 2.85 16.074 5.76 24.703 8.67-4.633 14.23-13.179 40.49-19.461 59.78-10.312-3.11-20.863-6.5-31.535-10.01" fill="#e2ba42"/><path d="m1211.5 1522.7c-2.31 0.77-4.57 1.52-6.85 2.29l-10.46 3.29-26.28-59.88c3.8-1.47 7.44-2.88 10.91-4.27l32.68 58.57" fill="#e2ba42"/><path d="m1160.9 1538.8c-5.56 1.64-11.05 3.23-16.49 4.76-7.79-19.97-18.13-46.46-22.9-58.69 8.42-2.73 16.54-5.51 24.25-8.26 5.88 13.39 18.49 42.13 25.82 58.82l-10.68 3.37" fill="#e2ba42"/><path d="m1098.8 1491.9c7.65 19.61 17.89 45.85 22.58 57.88-14.05 3.61-27.73 6.84-40.99 9.63-2.74-12.52-9.16-41.75-12.96-59.06 10.67-2.61 21.17-5.46 31.37-8.45" fill="#e2ba42"/><path d="m833.38 1555.2c-12.59-2.99-25.531-6.35-38.809-10.06 3.434-10.55 12.254-37.64 19.239-59.09 11.339 3.53 23.082 6.94 35.035 10.12-4.778 18.23-12.321 47.04-15.465 59.03" fill="#e2ba42"/><path d="m1057.2 1563.9c-33.84 6.07-64.718 9.2-92.066 9.2-31.59 0-68.121-4.4-108.7-12.85l15.308-58.43c2.696 0.61 5.399 1.23 8.102 1.81 17.965 28.82 49.855 48.06 86.316 48.06 32.426 0 61.215-15.23 79.825-38.87l11.21 51.08" fill="#e2ba42"/><path d="m1200.8 1455.1c13.11-5.61 20.76-9.26 20.76-9.26l-12.9-22.85 48.69 83.37c-7.82 2.92-15.54 5.75-23.22 8.49l-33.33-59.75" fill="#e2ba42"/><path d="m744.45 1461.7-26.605 59.13c-5.938-2.07-11.918-4.2-17.95-6.38l30.165-58.45c4.449 1.8 9.25 3.7 14.39 5.7" fill="#e2ba42"/><path d="m677.58 1506.2c-4.543-1.71-9.062-3.41-13.652-5.19l32.75-59.15c1.203 0.55 5.207 2.36 11.496 5.06l-30.594 59.28" fill="#e2ba42"/><path d="m1233.5 1585.8-18.4-39.4c2.74-0.92 5.38-1.84 8.07-2.76l21.27 38.12c-3.51 1.32-7.17 2.66-10.94 4.04" fill="#e2ba42"/><path d="m1194.6 1599.4c-5.28-11.31-13.92-29.82-18.81-40.33 5.62-1.71 11.22-3.44 16.75-5.19 4.03 8.63 12.74 27.29 18.63 39.94-5.35 1.85-10.89 3.71-16.57 5.58" fill="#e2ba42"/><path d="m1245.8 1535.8c8.09-2.91 16.03-5.82 23.64-8.68l21.24 36.35c-5.59 2.37-13.78 5.78-23.97 9.81l-20.91-37.48" fill="#e2ba42"/><path d="m1154.1 1568.6 17.73 37.99c-16.66 5.14-34.23 10.18-52.41 14.8l-8.69-43.3 43.37-9.49" fill="#e2ba42"/><path d="m698.43 1585.3 17.754-39.95c5.258 1.8 10.472 3.55 15.652 5.26l-14.293 41.46c-6.633-2.3-13.004-4.56-19.113-6.77" fill="#e2ba42"/><path d="m688.96 1535.7c1.613 0.59 3.25 1.2 4.859 1.78l-17.597 39.58c-2.485-0.94-4.848-1.85-7.184-2.76l19.922-38.6" fill="#e2ba42"/><path d="m754.34 1557.8c3.445 1.07 6.82 2.06 10.23 3.09-0.214 0.66-0.351 1.08-0.351 1.08l46.258 12.34-8.864 43.65c-21.593-5.79-42.351-12.11-61.668-18.42l14.395-41.74" fill="#e2ba42"/><path d="m646.96 1565.5c-6.195-2.52-11.402-4.7-15.242-6.34l20.648-37.29c4.797 1.88 9.539 3.67 14.289 5.48l-19.695 38.15" fill="#e2ba42"/><path d="m945.43 1699c-28.91-1.6-57.93-5.48-86.172-10.81l3.891-31.57c27.648 5.21 55.449 8.82 82.281 10.13v32.25" fill="#e2ba42"/><path d="m989.04 1699.5v-32.75c22.765-1.18 46.055-4.01 69.175-7.93l4.2 34.43c-24.08 3.38-48.7 5.57-73.375 6.25" fill="#e2ba42"/><path d="m1156.6 1674.4c-8.26 2.12-16.64 4.2-25.23 6.16l-7.17-35.7c7.27-1.83 14.41-3.74 21.47-5.68l10.93 35.22" fill="#e2ba42"/><path d="m1179.4 1668.2-11.04-35.59c9.99-2.98 19.76-6.01 29.08-9.04l12.28 35.63c-9.68 3.05-19.87 6.06-30.32 9" fill="#e2ba42"/><path d="m759.16 1663.1 9.156-29.76c9.34 2.76 18.817 5.46 28.536 8.04l-6.266 30.87c-10.785-2.93-21.215-6.01-31.426-9.15" fill="#e2ba42"/><path d="m736.64 1656c-8.625-2.84-17.059-5.7-25.051-8.55l9.531-28.93c7.895 2.66 16.168 5.34 24.59 7.99l-9.07 29.49" fill="#e2ba42"/><path d="m969.49 1496.1 26.992-14.54 22.85 22.84-18.7 29.08-29.064-8.3-2.078-29.08" fill="#e2ba42"/><path d="m1008.9 1467v-24.91l29.07-12.47 18.69 20.76-14.54 27.01-33.22-10.39" fill="#e2ba42"/><path d="m1000.6 1427.6-22.837-12.46 2.078-31.15 31.149-2.07 12.46 24.91-22.85 20.77" fill="#e2ba42"/><path d="m957.03 1419.3-22.843 24.92-29.067-8.3-2.078-35.31 35.301-8.3 18.687 26.99" fill="#e2ba42"/><path d="m936.27 1462.9 14.535 22.84-16.613 24.92-35.297-12.47 6.23-33.21 31.145-2.08" fill="#e2ba42"/><path d="m900.96 1392.3-18.684 12.45-2.078-12.45 20.762-22.84h10.383l-10.383 22.84" fill="#e2ba42"/><path d="m1021.4 1375.7-18.7-18.69 8.31-6.23 29.07 16.61 4.15 12.46-22.83-4.15" fill="#e2ba42"/><path d="m1282.3 497.76v368.32h16.62v72.961h-34.02c-1.37 59.902-5.68 248.79-5.91 259.24h14.37v58.15h-174.06v-58.15h14.38c-0.29-12.43-6.34-277.35-6.34-277.35l1.26-4.418h-17.34v22.527h-23.46c-0.87 34.953-7.7 311.57-8.05 325.97h18.49v69.75h-223.4v-69.75h18.496c-0.36-14.45-7.231-292.74-8.063-326.28h-23.453v-22.527h-11.828l1.34 4.723s-6.043 264.92-6.324 277.35h14.371v58.15h-174.06v-58.15h14.371c-0.234-10.47-4.566-199.97-5.926-259.55h-39.597v-72.964h16.609v-368.34c-0.789-2.125-73.605-197.82-73.605-197.82l17.347 13.02c1.231 0.918 124.02 92.945 216.28 92.945l311.48-0.476c92.26 0 215.06-91.239 216.29-92.164l17.34-13s-72.82 195.7-73.61 197.82" fill="#e2ba42"/><path d="m976.14 1071.9v-21.62h73.115c-0.17 7.07-0.35 14.29-0.53 21.62h-72.585" fill="#31328f"/><path d="m1030.1 1034.5v-25.77h20.16c-0.2 8.17-0.42 16.8-0.63 25.77h-19.53" fill="#31328f"/><path d="m1014.4 1034.5h-90.146v-25.77h90.146v25.77" fill="#31328f"/><path d="m1050.7 992.96h-76.61v-21.617h77.14c-0.15 6.492-0.34 13.738-0.53 21.617" fill="#31328f"/><path d="m932.54 1166.5h75.597v21.63h-75.597v-21.63" fill="#31328f"/><path d="m976.14 1131.2h56.925v19.54h-56.925v-19.54" fill="#31328f"/><path d="m893.94 1265h-4.886c-0.145-5.86-0.325-13.17-0.536-21.65h5.422v21.65" fill="#31328f"/><path d="m960.39 1227.6h-72.254c-0.184-7.37-0.379-15.33-0.59-23.69h72.844v23.69" fill="#31328f"/><path d="m907.62 1131.2h52.766v19.54h-52.766v-19.54" fill="#31328f"/><path d="m909.7 1265v-21.65h5.012v21.65h-5.012" fill="#31328f"/><path d="m1011.4 1265v-21.65h15.39v21.65h-15.39" fill="#31328f"/><path d="m976.14 1203.9h69.325c-0.21 8.36-0.4 16.32-0.58 23.69h-68.745v-23.69" fill="#31328f"/><path d="m1044.7 1319v-21.64h-15.76v21.64h-17.46v-21.64h-15.755v21.64h-17.48v-21.64h-15.75v21.64h-17.465v-21.64h-15.754v21.64h-17.469v-21.64h-15.754v21.64h-25.46v-38.23h10.812 8.074 154.12 8.07 10.82v38.23h-17.79" fill="#31328f"/><path d="m891.87 1150.8h-5.629c-0.16-6.45-0.32-12.97-0.484-19.54h6.113v19.54" fill="#31328f"/><path d="m908.48 1034.5h-25.11c-0.222-8.97-0.433-17.6-0.633-25.77h25.743v25.77" fill="#31328f"/><path d="m912.63 1115.5h-27.266c-0.23-9.29-0.461-18.61-0.687-27.85h27.953v27.85" fill="#31328f"/><path d="m960.39 1071.9h-76.102c-0.18-7.33-0.355-14.55-0.531-21.62h76.633v21.62" fill="#31328f"/><path d="m1023.9 955.6v-30.543h-15.76v30.543h-75.597v-26.391h-15.758v26.391h-35.367c-0.273-11.078-0.438-17.668-0.445-18.004 0.543-1.754 4.183-13.606 6.218-20.203h158.63c2.05 6.597 5.68 18.449 6.22 20.203 0 0.336-0.17 6.926-0.43 18.004h-27.71" fill="#31328f"/><path d="m958.31 992.96h-75.973c-0.192-7.879-0.375-15.125-0.531-21.617h76.504v21.617" fill="#31328f"/><path d="m1030.1 1115.5v-27.85h18.21c-0.22 9.24-0.45 18.56-0.68 27.85h-17.53" fill="#31328f"/><path d="m916.78 1188.2h-29.625c-0.176-7.01-0.351-14.23-0.535-21.63h30.16v21.63" fill="#31328f"/><path d="m1023.9 1188.2v-21.63h22.49c-0.18 7.4-0.35 14.62-0.53 21.63h-21.96" fill="#31328f"/><path d="m1014.4 1115.5h-85.993v-27.85h85.993v27.85" fill="#31328f"/><path d="m930.46 1243.4h65.23v21.65h-65.23v-21.65" fill="#31328f"/><path d="m1042.6 1243.4h1.91c-0.21 8.48-0.4 15.79-0.54 21.65h-1.37v-21.65" fill="#31328f"/><path d="m813.42 1146.4c-0.164 7.23-0.32 14.1-0.469 20.44h-52.898v-20.44h53.367" fill="#31328f"/><path d="m760.05 1085.2h43.726v16.96h-43.726v-16.96" fill="#31328f"/><path d="m801.99 1072.5v-23.93h13.656c-0.179 7.94-0.363 15.93-0.546 23.93h-13.11" fill="#31328f"/><path d="m789.26 1048.6v23.93h-66.317v-23.93h66.317" fill="#31328f"/><path d="m784.42 1115v18.69h-58.242v-18.69h58.242" fill="#31328f"/><path d="m747.32 1085.2v16.96h-40.503v-16.96h40.503" fill="#31328f"/><path d="m789.26 982.23v22.183h-69.539v-22.183h69.539" fill="#31328f"/><path d="m817.45 969.48h-59.015v-18.691h59.441c-0.129 5.602-0.274 11.867-0.426 18.691" fill="#31328f"/><path d="m797.15 1133.6v-18.69h16.989c-0.145 6.39-0.289 12.66-0.426 18.69h-16.563" fill="#31328f"/><path d="m695.7 1198.3h-3.297c-0.109-4.98-0.257-11.37-0.429-18.71h3.726v18.71" fill="#31328f"/><path d="m801.99 1004.4v-22.183h15.168c-0.16 7.031-0.328 14.437-0.504 22.183h-14.664" fill="#31328f"/><path d="m760.05 1035.8v-18.69h56.312c-0.14 6.12-0.281 12.37-0.422 18.69h-55.89" fill="#31328f"/><path d="m713.44 1133.6h-22.515c-0.141-6.03-0.281-12.3-0.426-18.69h22.941v18.69" fill="#31328f"/><path d="m745.7 969.48h-58.527c-0.156-6.824-0.297-13.089-0.426-18.691h58.953v18.691" fill="#31328f"/><path d="m706.99 1004.4h-19.019c-0.176-7.746-0.344-15.152-0.504-22.183h19.523v22.183" fill="#31328f"/><path d="m747.32 1035.8h-58.625c-0.144-6.32-0.285-12.57-0.429-18.69h59.054v18.69" fill="#31328f"/><path d="m710.22 1072.5h-20.688c-0.187-8-0.367-15.99-0.547-23.93h21.235v23.93" fill="#31328f"/><path d="m811.66 1179.6h0.996c-0.168 7.34-0.312 13.73-0.426 18.71h-0.57v-18.71" fill="#31328f"/><path d="m813.28 1243.7v-18.45h-12.734v18.45h-13.078v-18.45h-12.731v18.45h-13.082v-18.45h-12.73v18.45h-13.078v-18.45h-12.731v18.45h-13.082v-18.45h-12.734v18.45h-19.278v-32.67h8.149 6.519 119.25 6.512 8.152v32.67h-13.328" fill="#31328f"/><path d="m797.15 938.06v-25.93h-12.73v25.93h-58.242v-22.434h-12.735v22.434h-26.98c-0.215-9.496-0.352-15.235-0.356-15.492 0.379-1.344 3.293-11.59 4.875-17.141h122.67c1.582 5.551 4.493 15.797 4.872 17.141-4e-3 0.257-0.137 5.996-0.356 15.492h-21.016" fill="#31328f"/><path d="m787.47 1179.6h11.465v18.71h-11.465v-18.71" fill="#31328f"/><path d="m724.56 1179.6h50.179v18.71h-50.179v-18.71" fill="#31328f"/><path d="m747.32 1166.8h-55.632c-0.149-6.34-0.305-13.21-0.469-20.44h56.101v20.44" fill="#31328f"/><path d="m694.08 1102.2h-3.875c-0.125-5.59-0.254-11.25-0.387-16.96h4.262v16.96" fill="#31328f"/><path d="m708.43 1179.6h3.398v18.71h-3.398v-18.71" fill="#31328f"/><path d="m1236 1004.4v-22.183h15.17c-0.16 7.031-0.32 14.437-0.51 22.183h-14.66" fill="#31328f"/><path d="m1194 1035.8v-18.69h56.31c-0.14 6.12-0.27 12.37-0.42 18.69h-55.89" fill="#31328f"/><path d="m1223.2 1004.4h-69.53v-22.183h69.53v22.183" fill="#31328f"/><path d="m1194 1085.2h43.73v16.96h-43.73v-16.96" fill="#31328f"/><path d="m1140.8 1085.2h40.51v16.96h-40.51v-16.96" fill="#31328f"/><path d="m1160.2 1115h58.24v18.69h-58.24v-18.69" fill="#31328f"/><path d="m1251.4 969.48h-59.01v-18.691h59.44c-0.13 5.602-0.27 11.867-0.43 18.691" fill="#31328f"/><path d="m1129.7 1198.3h-3.28c-0.12-4.98-0.26-11.37-0.43-18.71h3.71v18.71" fill="#31328f"/><path d="m1221.4 1198.3v-18.71h11.47v18.71h-11.47" fill="#31328f"/><path d="m1181.3 1166.8h-55.64c-0.13-6.34-0.3-13.21-0.45-20.45h56.09v20.45" fill="#31328f"/><path d="m1194 1146.4h53.37c-0.17 7.24-0.32 14.11-0.47 20.45h-52.9v-20.45" fill="#31328f"/><path d="m1142.4 1198.3v-18.71h3.4v18.71h-3.4" fill="#31328f"/><path d="m1231.1 938.06v-25.93h-12.73v25.93h-58.24v-22.434h-12.73v22.434h-26.99c-0.21-9.496-0.35-15.235-0.35-15.492 0.37-1.344 3.3-11.59 4.88-17.141h122.66c1.58 5.551 4.5 15.797 4.87 17.141 0 0.257-0.12 5.996-0.35 15.492h-21.02" fill="#31328f"/><path d="m1181.3 1035.8h-58.62c-0.15-6.32-0.29-12.57-0.43-18.69h59.05v18.69" fill="#31328f"/><path d="m1141 1004.4h-19.02c-0.18-7.746-0.35-15.152-0.51-22.183h19.53v22.183" fill="#31328f"/><path d="m1223.2 1072.5h-66.31v-23.93h66.31v23.93" fill="#31328f"/><path d="m1128.1 1102.2h-3.87c-0.13-5.59-0.26-11.25-0.39-16.96h4.26v16.96" fill="#31328f"/><path d="m1247.3 1243.7v-18.46h-12.74v18.46h-13.08v-18.46h-12.73v18.46h-13.08v-18.46h-12.73v18.46h-13.08v-18.46h-12.73v18.46h-13.08v-18.46h-12.73v18.46h-19.29v-32.68h8.16 6.52 119.25 6.5 8.17v32.68h-13.33" fill="#31328f"/><path d="m1179.7 969.48h-58.53c-0.16-6.824-0.29-13.089-0.43-18.691h58.96v18.691" fill="#31328f"/><path d="m1144.2 1072.5h-20.68c-0.19-8-0.38-15.99-0.56-23.93h21.24v23.93" fill="#31328f"/><path d="m1231.1 1133.6v-18.69h16.98c-0.14 6.39-0.28 12.66-0.42 18.69h-16.56" fill="#31328f"/><path d="m1236 1072.5v-23.93h13.66c-0.18 7.94-0.36 15.93-0.55 23.93h-13.11" fill="#31328f"/><path d="m1147.4 1133.6h-22.52c-0.14-6.03-0.28-12.3-0.43-18.69h22.95v18.69" fill="#31328f"/><path d="m1245.6 1179.6h0.99c-0.17 7.34-0.32 13.73-0.42 18.71h-0.57v-18.71" fill="#31328f"/><path d="m1158.5 1179.6h50.18v18.71h-50.18v-18.71" fill="#31328f"/><path d="m847.7 865.77h-82.785v-34.915h82.785v34.915" fill="#31328f"/><path d="m1063.6 865.77h-203.22v-34.915h25.75c8.621 12.114 30.617 33.083 80.015 33.083 47.225 0 72.325-20.125 83.585-33.083h13.87v34.915" fill="#31328f"/><path d="m1186.2 865.77h-109.78v-34.915h109.78v34.915" fill="#31328f"/><path d="m1286.2 877.94v48.359h-20.99c0.07-3.383 0.12-5.367 0.12-5.367l-8.03-28.25h-141.89l-3.16 11.093h-33.7v22.524h-13.44l-7.6-24.664h-181.9l-7.5 24.359h-13.543v-22.523h-28.184l-3.062-10.789h-141.9l-8.039 28.25s0.043 1.879 0.113 5.062h-26.57v-47.484l639.28-0.57" fill="#31328f"/><path d="m1198.9 830.86h70.65v34.915h-70.65v-34.915" fill="#31328f"/><path d="m752.18 865.77h-88.7v-34.915h88.7v34.915" fill="#31328f"/><path d="m1058.2 818.12c3.66-8.508 18.72-39.312 45.02-39.312 20.45 0 29.48 24.465 33.08 39.312h-78.1" fill="#31328f"/><path d="m807.98 818.12c2.625-10.14 8.117-19.476 15.359-25.617 4.574-3.863 12.086-8.309 21.891-7.496 15.07 1.266 28.23 21.496 34.078 33.113h-71.328" fill="#31328f"/><path d="m1001.9 777.6c-7.789 4.969-16.114 8.727-24.742 10.555v-53.527h24.742v42.972" fill="#31328f"/><path d="m997.68 847.4-11.696-45.128c2.743-0.801 5.442-1.801 8.11-2.891l22.926 40.91c-5.47 2.754-11.94 5.199-19.34 7.109" fill="#31328f"/><path d="m966.91 805.16c1.172-0.012 2.324-0.183 3.488-0.262l11.743 45.313c-4.985 0.59-10.231 0.988-15.946 0.988-2.715 0-5.234-0.14-7.757-0.277l8.472-45.762" fill="#31328f"/><path d="m977.19 682.72h24.742v36.16h-24.742v-36.16" fill="#31328f"/><path d="m1017.7 765.57v-30.941h26.44c-6 9.324-15.21 20.832-26.44 30.941" fill="#31328f"/><path d="m1071.8 777.87-23.33-21.879c4.44-5.679 8.21-11.265 11.2-16.465l37.44 26.989c-9.97 1.293-18.35 5.707-25.31 11.355" fill="#31328f"/><path d="m1038.2 767.93 22.57 21.156c-3.68 4.586-6.7 9.246-9.01 13.356l-22.78-25.528c3.25-2.906 6.3-5.922 9.22-8.984" fill="#31328f"/><path d="m1017.7 682.72h24.3v36.16h-24.3v-36.16" fill="#31328f"/><path d="m1008.2 792.28c2.88-1.722 5.69-3.566 8.44-5.519l27.53 30.847c-2.06 3.047-6.45 8.555-13.79 14.266l-22.18-39.594" fill="#31328f"/><path d="m943.28 800.51c2.606 1.031 5.27 1.879 7.993 2.59l-8.532 46.066c-6.113-1.094-11.523-2.574-16.285-4.309l16.824-44.347" fill="#31328f"/><path d="m891.82 755.7-27.843 23.45c-5.297-3.661-11.196-6.297-17.688-6.832-1.215-0.094-2.406 0.062-3.609 0.062l40.746-29.375c2.398 3.91 5.179 8.188 8.394 12.695" fill="#31328f"/><path d="m920.94 766.12c-10.2-10.387-18.469-22.25-24.149-31.492h24.149v31.492" fill="#31328f"/><path d="m1017.7 666.96v-27.418h-15.75v27.418h-24.742v-79.332h-15.754v79.332h-24.739v-27.418h-15.757v27.418h-14.965v-247.39h136.01v247.39h-24.3" fill="#31328f"/><path d="m901.49 768.14c2.211 2.617 4.563 5.203 7.016 7.754l-21.164 30.421c-2.883-5-6.805-10.925-11.625-16.464l25.773-21.711" fill="#31328f"/><path d="m961.43 718.88h-24.739v-36.16h24.739v36.16" fill="#31328f"/><path d="m961.43 789c-8.786-0.981-17.094-4.488-24.739-9.613v-44.758h24.739v54.371" fill="#31328f"/><path d="m920.94 718.88h-14.965v-36.16h14.965v36.16" fill="#31328f"/><path d="m920.18 786.7c2.886 2.356 5.867 4.606 8.976 6.618l-16.953 44.683c-8.965-5.66-14.012-11.863-16.633-15.91l24.61-35.391" fill="#31328f"/><path d="m715.08 592.57h78.633v34.93h-78.633v-34.93" fill="#31328f"/><path d="m663.48 735.54h92.852v34.918h-92.852v-34.918" fill="#31328f"/><path d="m793.71 579.83h-30.875v-34.914h30.875v34.914" fill="#31328f"/><path d="m708.58 532.17h-45.098v-28.492h45.098v28.492" fill="#31328f"/><path d="m769.07 735.54h24.645v34.918h-24.645v-34.918" fill="#31328f"/><path d="m750.1 579.83h-86.622v-34.914h86.622v34.914" fill="#31328f"/><path d="m737.64 818.12h-35.024v-34.926h35.024v34.926" fill="#31328f"/><path d="m750.38 783.19h43.332v34.926h-43.332v-34.926" fill="#31328f"/><path d="m689.89 783.19v34.926h-26.407v-34.926h26.407" fill="#31328f"/><path d="m793.71 532.17h-72.402v-28.492h72.402v28.492" fill="#31328f"/><path d="m702.34 592.57v34.93h-38.864v-34.93h38.864" fill="#31328f"/><path d="m706.5 687.88v34.914h-43.02v-34.914h43.02" fill="#31328f"/><path d="m793.71 675.14h-130.23v-34.911h130.23v34.911" fill="#31328f"/><path d="m719.23 687.88h74.481v34.914h-74.481v-34.914" fill="#31328f"/><path d="m1250.8 687.88h18.74v34.914h-18.74v-34.914" fill="#31328f"/><path d="m1151.1 687.88h86.93v34.914h-86.93v-34.914" fill="#31328f"/><path d="m1246.6 592.57h22.89v34.93h-22.89v-34.93" fill="#31328f"/><path d="m1246.6 532.17v-28.492h22.89v28.492h-22.89" fill="#31328f"/><path d="m1151.1 735.54h18.41v34.918h-18.41v-34.918" fill="#31328f"/><path d="m1182.3 735.54h87.26v34.918h-87.26v-34.918" fill="#31328f"/><path d="m1242.2 818.12h-30.88v-34.926h30.88v34.926" fill="#31328f"/><path d="m1255 783.19h14.58v34.926h-14.58v-34.926" fill="#31328f"/><path d="m1269.5 675.14h-118.4v-34.911h118.4v34.911" fill="#31328f"/><path d="m1198.6 783.19v34.926h-47.48v-34.926h47.48" fill="#31328f"/><path d="m1233.9 532.17h-82.77v-28.492h82.77v28.492" fill="#31328f"/><path d="m1233.9 627.5h-82.77v-34.93h82.77v34.93" fill="#31328f"/><path d="m1237.8 429.42c1.57 4.234 6.85 18.281 9.52 25.41l-13.48 12.121-43.61-1.816-9.57-17.785 46.03-19.313c3.98 0.508 8.72 1.094 11.11 1.383" fill="#31328f"/><path d="m1218.8 417.52c-8.28 3.46-26.1 10.937-35.67 14.953 0.8-7.754 1.95-18.68 2.64-25.282 10.23-3.093 20.43-6.675 30.41-10.679l2.62 21.008" fill="#31328f"/><path d="m1192.7 477.99c8.29 0.352 26.94 1.121 35.91 1.489-0.66 3.691-1.45 8.093-2.05 11.461h-33.86v-12.95" fill="#31328f"/><path d="m1266.8 397.8-26.12 19.156c-3.17-0.398-6.83-0.859-9.18-1.152-0.65-5.215-2.23-17.942-3.04-24.403 12.38-5.386 24.32-11.199 35.58-17.125l2.76 23.524" fill="#31328f"/><path d="m1169.8 437.66c-5.35-0.707-13.14-1.738-18.68-2.492v-19.773c7.11-1.137 14.29-2.739 21.47-4.551l-2.79 26.816" fill="#31328f"/><path d="m1167.7 450.23c0.18 0.339 0.42 0.773 0.68 1.261l-0.11 1.047 0.54-0.23c2.94 5.449 9.01 16.738 11.12 20.652v17.981h-28.79v-42.911c7.05 0.938 14.19 1.895 16.56 2.2" fill="#31328f"/><path d="m1242 476.69c3.98-3.57 14.53-13.062 17.16-15.433 2.57 0.156 13.56 0.847 22.57 1.402-4.7 12.633-8.48 22.801-10.52 28.278h-31.77l2.56-14.247" fill="#31328f"/><path d="m1305.2 399.57c-9.94-1.66-21.96-3.66-25.95-4.324-0.66-5.535-2.46-20.879-3.24-27.465 22.08-12.23 40.69-24.219 53.17-32.711-4.29 11.559-13.8 37.114-23.98 64.5" fill="#31328f"/><path d="m1250 425.87 25.09-18.406c7.53 1.25 18.94 3.156 25.58 4.265-3.71 10-7.44 19.985-10.94 29.418-1.65 3.938-3.04 7.266-3.76 9.016-5.09-0.305-20.31-1.258-27.5-1.719l-8.47-22.574" fill="#31328f"/><path d="m1188.2 545.07v34.758h-37.09v-34.914h37.09v0.156" fill="#31328f"/><path d="m1201 579.83v-34.914h68.58v34.914h-68.58" fill="#31328f"/><path d="m707.16 419.96c-2.347 0.297-6.015 0.758-9.187 1.156l-26.114-19.16 2.946-25.016c11.351 5.801 23.3 11.465 35.648 16.633-0.672 5.387-2.562 20.555-3.293 26.387" fill="#31328f"/><path d="m688.51 429.96-9.07 22.668c-8.286 0.457-25.422 1.414-30.774 1.723-2.297-6.125-10.726-28.602-14.309-38.161 6.629-1.046 20.524-3.23 29.125-4.597l25.028 18.367" fill="#31328f"/><path d="m745.95 490.94h-35.375c-0.238-1.903-0.582-4.614-0.914-7.278 8.672-0.367 27.918-1.168 36.289-1.519v8.797" fill="#31328f"/><path d="m758.68 477.11c1.98-3.679 7.445-13.836 10.543-19.589l0.14 0.062-0.019-0.277c0.652-1.215 1.207-2.246 1.57-2.922 3.094-0.418 14.273-1.91 22.793-3.035v39.59h-35.027v-13.829" fill="#31328f"/><path d="m754.88 437.26c-9.469-4.172-27-11.91-35.113-15.496l2.91-23.309c9.816 3.754 19.777 7.141 29.777 9.969 0.496 5.988 1.652 19.695 2.426 28.836" fill="#31328f"/><path d="m700.77 433.6c2.355-0.297 7.121-0.899 11.136-1.387l45.633 20.156-9.109 16.926-43.617 1.812-14.008-12.617c2.433-6.074 8.242-20.582 9.965-24.89" fill="#31328f"/><path d="m659.35 399.36c-4.45 0.703-18.946 2.996-29.758 4.703-10.852-29.171-21.235-57.082-25.781-69.3 13.546 9.218 34.339 22.543 58.925 35.82-0.648 5.492-2.683 22.789-3.386 28.777" fill="#31328f"/><path d="m679.43 465.4c2.582 2.325 12.941 11.649 17.035 15.329l1.277 10.211h-35.828c-1.762-4.75-4.949-13.309-8.957-24.079 10.426-0.57 23.766-1.308 26.473-1.461" fill="#31328f"/><path d="m765.52 411.79c9.39 2.168 18.742 3.801 27.953 4.738-0.391 5.832-1.133 16.973-1.481 22.188-4.957 0.66-16.965 2.261-23.941 3.199l-2.531-30.125" fill="#31328f"/></g></g></svg>
