<?xml version="1.0" encoding="UTF-8" standalone="no"?>
<svg
   version="1.1"
   width="595.27557"
   height="841.88977"
   id="svg219"
   viewBox="0 0 595.27557 841.88977"
   sodipodi:docname="Grad_Zagreb.cdr"
   xmlns:inkscape="http://www.inkscape.org/namespaces/inkscape"
   xmlns:sodipodi="http://sodipodi.sourceforge.net/DTD/sodipodi-0.dtd"
   xmlns="http://www.w3.org/2000/svg"
   xmlns:svg="http://www.w3.org/2000/svg">
  <defs
     id="defs223" />
  <sodipodi:namedview
     id="namedview221"
     pagecolor="#ffffff"
     bordercolor="#666666"
     borderopacity="1.0"
     inkscape:pageshadow="2"
     inkscape:pageopacity="0.0"
     inkscape:pagecheckerboard="0" />
  <g
     id="Layer1000">
    <path
       d="M 63.4566,133.2281 H 531.8188 V 493.0723 C 533.5795,584.1484 471.5126,705.7699 292.1183,708.6618 136.0123,707.3552 64.7837,584.9843 63.4566,493.3583 Z"
       style="fill:#006ab3;fill-rule:evenodd;stroke:#1b1918;stroke-width:5.6693;stroke-linecap:butt;stroke-linejoin:miter;stroke-dasharray:none"
       id="path2" />
    <g
       id="Layer1001">
      <path
         d="m 300.1407,234.1816 0.001,30.4713"
         style="fill:none;stroke:#1b1918;stroke-width:1.9162;stroke-linecap:butt;stroke-linejoin:miter;stroke-dasharray:none"
         id="path4" />
      <path
         d="m 300.3665,256.9285 a 6.2124,6.6723 0 0 1 6.2123,6.6723 6.2124,6.6723 0 1 1 -6.2123,-6.6723 z"
         style="fill:#1b1918;fill-rule:evenodd;stroke:#1b1918;stroke-width:1.9162;stroke-linecap:butt;stroke-linejoin:miter;stroke-dasharray:none"
         id="path6" />
      <path
         d="m 406.7851,278.0246 0.001,30.4713"
         style="fill:none;stroke:#1b1918;stroke-width:1.9162;stroke-linecap:butt;stroke-linejoin:miter;stroke-dasharray:none"
         id="path8" />
      <path
         d="m 407.0108,300.7715 a 6.2124,6.6723 0 0 1 6.2124,6.6723 6.2124,6.6723 0 1 1 -6.2124,-6.6723 z"
         style="fill:#1b1918;fill-rule:evenodd;stroke:#1b1918;stroke-width:1.9162;stroke-linecap:butt;stroke-linejoin:miter;stroke-dasharray:none"
         id="path10" />
      <path
         d="m 195.5374,275.8324 0.001,30.4714"
         style="fill:none;stroke:#1b1918;stroke-width:1.9162;stroke-linecap:butt;stroke-linejoin:miter;stroke-dasharray:none"
         id="path12" />
      <path
         d="m 195.7631,298.5794 a 6.2124,6.6723 0 0 1 6.2124,6.6723 6.2124,6.6723 0 1 1 -6.2124,-6.6723 z"
         style="fill:#1b1918;fill-rule:evenodd;stroke:#1b1918;stroke-width:1.9162;stroke-linecap:butt;stroke-linejoin:miter;stroke-dasharray:none"
         id="path14" />
    </g>
    <path
       d="m 115.1355,215.8706 0.3472,0.1576 10.1622,28.7807 11.1802,-27.6221 29.0677,3.9816 -17.0348,-22.4636 18.9931,-23.2115 -29.8261,4.0953 -10.8633,-28.6891 -11.1532,27.8385 -27.8813,-3.2997 17.1225,20.9237 -20.7526,24.9714 z"
       style="fill:#ffec00;fill-rule:evenodd;stroke:#1b1918;stroke-width:2.8346;stroke-linecap:butt;stroke-linejoin:miter;stroke-dasharray:none"
       id="path17" />
    <path
       d="m 457.7271,159.23 c 1.9497,-3.0752 32.0771,-12.8353 47.8731,5.1478 5.2654,5.995 13.4642,14.4185 13.4432,28.5861 -0.0808,54.4729 -56.894,42.213 -59.3319,38.4963 -2.4379,-3.7167 34.1213,-4.67 33.5354,-36.1151 C 492.6611,163.9 455.7774,162.3052 457.7271,159.23 Z"
       style="fill:#ffffff;fill-rule:evenodd;stroke:#1b1918;stroke-width:2.8346;stroke-linecap:butt;stroke-linejoin:miter;stroke-dasharray:none"
       id="path19" />
    <path
       d="m 355.3162,176.7795 0.0648,28.5525 -9.72,14.6421 10.9388,141.3052 15.1724,0.3276 5.3202,-95.1312 -8.5179,-9.7706 -0.1154,-25.2885 14.8881,0.6399 0.9233,15.9895 14.7361,-0.5788 0.228,-15.723 15.2372,-0.1071 1.7987,14.5135 15.1527,0.3154 0.6559,-14.2747 14.5109,0.1806 -0.0534,24.1617 -9.4075,11.5619 4.7262,94.8403 13.3934,0.0245 -0.1773,-17.0856 15.7467,0.0368 -0.4589,31.0786 -19.5721,18.1266 5.1569,160.7669 31.3526,68.0423 C 405.4669,573.9857 263.2035,526.7585 112.5011,622.3183 l 26.6995,-69.4079 8.3322,-159.3369 -20.9402,-19.9638 -0.1577,-29.3302 17.233,0.8604 0.0703,17.7377 17.3006,-0.4501 c 0.8557,-35.0958 2.159,-67.5033 3.0147,-101.6715 l -7.2991,-6.378 v -22.6981 c 5.9339,0 8.0169,-0.0275 14.9388,-0.0275 l 0.0282,16.2956 15.4004,0.5358 0.6728,-16.8039 c 6.7417,0 7.6763,0 15.2681,0 0,3.5672 0,12.0487 0,16.5038 l 15.3779,-0.003 0.0338,-16.8988 c 6.6658,0.0551 7.9297,-0.1623 14.5757,-0.0827 l 0.0422,24.3607 -8.8417,5.7014 c 1.7115,39.1131 2.5278,59.8853 4.2421,98.9984 8.5039,0.1408 11.3216,0.3246 19.8846,0.0735 l 11.7439,-139.5905 -14.0549,-13.8491 0.1013,-30.1999 15.3357,0.0735 0.0816,17.897 14.9698,0.0521 0.0253,-17.7929 16.0732,0.101 0.152,17.7715 18.3843,0.2051 0.006,-18.3073 15.7692,0.0704 0.0479,18.0685 14.7192,0.1225 0.0732,-18.3196 z"
       style="fill:#ffffff;fill-rule:evenodd;stroke:#1b1918;stroke-width:3.9685;stroke-linecap:butt;stroke-linejoin:miter;stroke-dasharray:none"
       id="path21" />
    <path
       d="m 164.6436,284.0231 h 60.1532"
       style="fill:#ffffff;fill-rule:evenodd;stroke:#1b1918;stroke-width:0.5102;stroke-linecap:butt;stroke-linejoin:miter;stroke-dasharray:none"
       id="path23" />
    <path
       d="M 258.6489,242.0749 H 347.1"
       style="fill:#ffffff;fill-rule:evenodd;stroke:#1b1918;stroke-width:0.5102;stroke-linecap:butt;stroke-linejoin:miter;stroke-dasharray:none"
       id="path25" />
    <path
       d="M 250.2014,344.3577 H 355.3717"
       style="fill:#ffffff;fill-rule:evenodd;stroke:#1b1918;stroke-width:0.5102;stroke-linecap:butt;stroke-linejoin:miter;stroke-dasharray:none"
       id="path27" />
    <path
       d="m 253.5401,288.9538 h 96.267"
       style="fill:#ffffff;fill-rule:evenodd;stroke:#1b1918;stroke-width:0.5102;stroke-linecap:butt;stroke-linejoin:miter;stroke-dasharray:none"
       id="path29" />
    <path
       d="m 213.6767,303.716 v 19.9175"
       style="fill:#ffffff;fill-rule:evenodd;stroke:#1b1918;stroke-width:0.5102;stroke-linecap:butt;stroke-linejoin:miter;stroke-dasharray:none"
       id="path31" />
    <path
       d="m 157.6259,256.0739 h 74.457"
       style="fill:#ffffff;fill-rule:evenodd;stroke:#1b1918;stroke-width:0.5102;stroke-linecap:butt;stroke-linejoin:miter;stroke-dasharray:none"
       id="path33" />
    <path
       d="m 164.9398,265.3911 h 59.857"
       style="fill:#ffffff;fill-rule:evenodd;stroke:#1b1918;stroke-width:0.5102;stroke-linecap:butt;stroke-linejoin:miter;stroke-dasharray:none"
       id="path35" />
    <path
       d="m 163.6255,303.4498 h 61.7036"
       style="fill:#ffffff;fill-rule:evenodd;stroke:#1b1918;stroke-width:0.5102;stroke-linecap:butt;stroke-linejoin:miter;stroke-dasharray:none"
       id="path37" />
    <path
       d="m 161.1752,324.3329 h 67.5615"
       style="fill:#ffffff;fill-rule:evenodd;stroke:#1b1918;stroke-width:0.5102;stroke-linecap:butt;stroke-linejoin:miter;stroke-dasharray:none"
       id="path39" />
    <path
       d="m 161.6418,344.8582 h 67.1986"
       style="fill:#ffffff;fill-rule:evenodd;stroke:#1b1918;stroke-width:0.5102;stroke-linecap:butt;stroke-linejoin:miter;stroke-dasharray:none"
       id="path41" />
    <path
       d="M 177.5809,266.0868 V 283.11"
       style="fill:#ffffff;fill-rule:evenodd;stroke:#1b1918;stroke-width:0.5102;stroke-linecap:butt;stroke-linejoin:miter;stroke-dasharray:none"
       id="path43" />
    <path
       d="m 177.6534,304.25 v 19.9174"
       style="fill:#ffffff;fill-rule:evenodd;stroke:#1b1918;stroke-width:0.5102;stroke-linecap:butt;stroke-linejoin:miter;stroke-dasharray:none"
       id="path45" />
    <path
       d="m 213.0023,265.9412 v 18.5715"
       style="fill:#ffffff;fill-rule:evenodd;stroke:#1b1918;stroke-width:0.5102;stroke-linecap:butt;stroke-linejoin:miter;stroke-dasharray:none"
       id="path47" />
    <path
       d="m 195.3247,324.5429 v 19.1046"
       style="fill:#ffffff;fill-rule:evenodd;stroke:#1b1918;stroke-width:0.5102;stroke-linecap:butt;stroke-linejoin:miter;stroke-dasharray:none"
       id="path49" />
    <path
       d="m 181.6253,345.7737 -0.0596,16.4644 h 24.6315 L 206.13,345.6483"
       style="fill:#ffffff;fill-rule:evenodd;stroke:#1b1918;stroke-width:0.5102;stroke-linecap:butt;stroke-linejoin:miter;stroke-dasharray:none"
       id="path51" />
    <path
       d="m 327.1814,266.6839 v 21.4709"
       style="fill:#ffffff;fill-rule:evenodd;stroke:#1b1918;stroke-width:0.5102;stroke-linecap:butt;stroke-linejoin:miter;stroke-dasharray:none"
       id="path53" />
    <path
       d="m 247.6094,208.278 h 105.407"
       style="fill:#ffffff;fill-rule:evenodd;stroke:#1b1918;stroke-width:0.5102;stroke-linecap:butt;stroke-linejoin:miter;stroke-dasharray:none"
       id="path55" />
    <path
       d="m 260.774,221.0765 h 84.025"
       style="fill:#ffffff;fill-rule:evenodd;stroke:#1b1918;stroke-width:0.5102;stroke-linecap:butt;stroke-linejoin:miter;stroke-dasharray:none"
       id="path57" />
    <path
       d="m 256.874,265.8555 h 92.5922"
       style="fill:#ffffff;fill-rule:evenodd;stroke:#1b1918;stroke-width:0.5102;stroke-linecap:butt;stroke-linejoin:miter;stroke-dasharray:none"
       id="path59" />
    <path
       d="m 374.5883,323.4307 h 63.9106"
       style="fill:#ffffff;fill-rule:evenodd;stroke:#1b1918;stroke-width:0.5102;stroke-linecap:butt;stroke-linejoin:miter;stroke-dasharray:none"
       id="path61" />
    <path
       d="m 274.6855,221.9784 v 19.687"
       style="fill:#ffffff;fill-rule:evenodd;stroke:#1b1918;stroke-width:0.5102;stroke-linecap:butt;stroke-linejoin:miter;stroke-dasharray:none"
       id="path63" />
    <path
       d="m 273.0161,266.7417 v 21.286"
       style="fill:#ffffff;fill-rule:evenodd;stroke:#1b1918;stroke-width:0.5102;stroke-linecap:butt;stroke-linejoin:miter;stroke-dasharray:none"
       id="path65" />
    <path
       d="m 273.0161,315.6742 v 27.2217"
       style="fill:#ffffff;fill-rule:evenodd;stroke:#1b1918;stroke-width:0.5102;stroke-linecap:butt;stroke-linejoin:miter;stroke-dasharray:none"
       id="path67" />
    <path
       d="m 325.513,221.5175 -10e-4,20.1479"
       style="fill:#ffffff;fill-rule:evenodd;stroke:#1b1918;stroke-width:0.5102;stroke-linecap:butt;stroke-linejoin:miter;stroke-dasharray:none"
       id="path69" />
    <path
       d="m 299.915,289.7097 v 24.8516"
       style="fill:#ffffff;fill-rule:evenodd;stroke:#1b1918;stroke-width:0.5102;stroke-linecap:butt;stroke-linejoin:miter;stroke-dasharray:none"
       id="path71" />
    <path
       d="m 327.1814,316.4748 v 27.2217"
       style="fill:#ffffff;fill-rule:evenodd;stroke:#1b1918;stroke-width:0.5102;stroke-linecap:butt;stroke-linejoin:miter;stroke-dasharray:none"
       id="path73" />
    <path
       d="m 265.4063,344.8556 -0.0578,16.1373 h 23.8552 l -0.0651,-16.2601"
       style="fill:#ffffff;fill-rule:evenodd;stroke:#1b1918;stroke-width:0.5102;stroke-linecap:butt;stroke-linejoin:miter;stroke-dasharray:none"
       id="path75" />
    <path
       d="m 312.6387,344.8294 -0.0113,17.269 h 21.4656 l -0.009,-17.1472"
       style="fill:#ffffff;fill-rule:evenodd;stroke:#1b1918;stroke-width:0.5102;stroke-linecap:butt;stroke-linejoin:miter;stroke-dasharray:none"
       id="path77" />
    <path
       d="m 424.7102,303.716 v 19.9175"
       style="fill:#ffffff;fill-rule:evenodd;stroke:#1b1918;stroke-width:0.5102;stroke-linecap:butt;stroke-linejoin:miter;stroke-dasharray:none"
       id="path79" />
    <path
       d="m 369.0594,256.0739 h 76.5737"
       style="fill:#ffffff;fill-rule:evenodd;stroke:#1b1918;stroke-width:0.5102;stroke-linecap:butt;stroke-linejoin:miter;stroke-dasharray:none"
       id="path81" />
    <path
       d="m 375.74,265.2497 63.2401,0.1414"
       style="fill:#ffffff;fill-rule:evenodd;stroke:#1b1918;stroke-width:0.5102;stroke-linecap:butt;stroke-linejoin:miter;stroke-dasharray:none"
       id="path83" />
    <path
       d="m 376.4233,284.0231 h 62.5568"
       style="fill:#ffffff;fill-rule:evenodd;stroke:#1b1918;stroke-width:0.5102;stroke-linecap:butt;stroke-linejoin:miter;stroke-dasharray:none"
       id="path85" />
    <path
       d="m 375.7942,303.4498 h 63.7182"
       style="fill:#ffffff;fill-rule:evenodd;stroke:#1b1918;stroke-width:0.5102;stroke-linecap:butt;stroke-linejoin:miter;stroke-dasharray:none"
       id="path87" />
    <path
       d="m 372.7245,344.8582 h 69.359"
       style="fill:#ffffff;fill-rule:evenodd;stroke:#1b1918;stroke-width:0.5102;stroke-linecap:butt;stroke-linejoin:miter;stroke-dasharray:none"
       id="path89" />
    <path
       d="M 388.6144,265.7654 V 283.11"
       style="fill:#ffffff;fill-rule:evenodd;stroke:#1b1918;stroke-width:0.5102;stroke-linecap:butt;stroke-linejoin:miter;stroke-dasharray:none"
       id="path91" />
    <path
       d="m 388.687,304.25 v 19.9174"
       style="fill:#ffffff;fill-rule:evenodd;stroke:#1b1918;stroke-width:0.5102;stroke-linecap:butt;stroke-linejoin:miter;stroke-dasharray:none"
       id="path93" />
    <path
       d="m 424.0358,265.9411 v 18.0151"
       style="fill:#ffffff;fill-rule:evenodd;stroke:#1b1918;stroke-width:0.5102;stroke-linecap:butt;stroke-linejoin:miter;stroke-dasharray:none"
       id="path95" />
    <path
       d="m 406.3583,324.5429 v 19.1046"
       style="fill:#ffffff;fill-rule:evenodd;stroke:#1b1918;stroke-width:0.5102;stroke-linecap:butt;stroke-linejoin:miter;stroke-dasharray:none"
       id="path97" />
    <path
       d="m 392.6588,345.7737 0.0261,16.3658 24.5458,0.0986 -0.0672,-16.5898"
       style="fill:#ffffff;fill-rule:evenodd;stroke:#1b1918;stroke-width:0.5102;stroke-linecap:butt;stroke-linejoin:miter;stroke-dasharray:none"
       id="path99" />
    <path
       d="m 252.8314,315.8209 h 99.7457"
       style="fill:#ffffff;fill-rule:evenodd;stroke:#1b1918;stroke-width:0.5102;stroke-linecap:butt;stroke-linejoin:miter;stroke-dasharray:none"
       id="path101" />
    <path
       d="M 128.8938,376.328 H 470.0017"
       style="fill:none;stroke:#1b1918;stroke-width:0.5102;stroke-linecap:butt;stroke-linejoin:miter;stroke-dasharray:none"
       id="path103" />
    <path
       d="M 146.144,390.7224 H 456.081"
       style="fill:none;stroke:#1b1918;stroke-width:0.5102;stroke-linecap:butt;stroke-linejoin:miter;stroke-dasharray:none"
       id="path105" />
    <path
       d="M 146.2853,414.2469 H 451.878"
       style="fill:none;stroke:#1b1918;stroke-width:0.5102;stroke-linecap:butt;stroke-linejoin:miter;stroke-dasharray:none"
       id="path107" />
    <path
       d="M 145.5214,437.1729 H 451.878"
       style="fill:none;stroke:#1b1918;stroke-width:0.5102;stroke-linecap:butt;stroke-linejoin:miter;stroke-dasharray:none"
       id="path109" />
    <path
       d="M 144.3786,461.384 H 451.878"
       style="fill:none;stroke:#1b1918;stroke-width:0.5102;stroke-linecap:butt;stroke-linejoin:miter;stroke-dasharray:none"
       id="path111" />
    <path
       d="M 143.5639,482.3824 H 453.325"
       style="fill:none;stroke:#1b1918;stroke-width:0.5102;stroke-linecap:butt;stroke-linejoin:miter;stroke-dasharray:none"
       id="path113" />
    <path
       d="M 141.5265,505.3084 H 454.3553"
       style="fill:none;stroke:#1b1918;stroke-width:0.5102;stroke-linecap:butt;stroke-linejoin:miter;stroke-dasharray:none"
       id="path115" />
    <path
       d="M 141.5265,528.2344 H 455.5133"
       style="fill:none;stroke:#1b1918;stroke-width:0.5102;stroke-linecap:butt;stroke-linejoin:miter;stroke-dasharray:none"
       id="path117" />
    <path
       d="M 139.8816,552.4455 H 455.7333"
       style="fill:none;stroke:#1b1918;stroke-width:0.5102;stroke-linecap:butt;stroke-linejoin:miter;stroke-dasharray:none"
       id="path119" />
    <path
       d="m 352.6702,391.7492 -0.008,21.5286"
       style="fill:none;stroke:#1b1918;stroke-width:0.5102;stroke-linecap:butt;stroke-linejoin:miter;stroke-dasharray:none"
       id="path121" />
    <path
       d="m 195.1825,391.7492 -0.008,21.5286"
       style="fill:none;stroke:#1b1918;stroke-width:0.5102;stroke-linecap:butt;stroke-linejoin:miter;stroke-dasharray:none"
       id="path123" />
    <path
       d="m 244.9749,391.6411 -0.008,21.5285"
       style="fill:none;stroke:#1b1918;stroke-width:0.5102;stroke-linecap:butt;stroke-linejoin:miter;stroke-dasharray:none"
       id="path125" />
    <path
       d="m 174.1159,461.8943 0.1218,20.318"
       style="fill:none;stroke:#1b1918;stroke-width:0.5102;stroke-linecap:butt;stroke-linejoin:miter;stroke-dasharray:none"
       id="path127" />
    <path
       d="m 172.8224,505.5205 0.1218,23.0961"
       style="fill:none;stroke:#1b1918;stroke-width:0.5102;stroke-linecap:butt;stroke-linejoin:miter;stroke-dasharray:none"
       id="path129" />
    <path
       d="m 194.6502,437.2884 0.1218,23.0961"
       style="fill:none;stroke:#1b1918;stroke-width:0.5102;stroke-linecap:butt;stroke-linejoin:miter;stroke-dasharray:none"
       id="path131" />
    <path
       d="m 193.8418,528.8035 0.1218,23.0961"
       style="fill:none;stroke:#1b1918;stroke-width:0.5102;stroke-linecap:butt;stroke-linejoin:miter;stroke-dasharray:none"
       id="path133" />
    <path
       d="m 194.1651,481.7524 0.1218,23.0961"
       style="fill:none;stroke:#1b1918;stroke-width:0.5102;stroke-linecap:butt;stroke-linejoin:miter;stroke-dasharray:none"
       id="path135" />
    <path
       d="m 424.4605,461.8943 -0.1218,20.318"
       style="fill:none;stroke:#1b1918;stroke-width:0.5102;stroke-linecap:butt;stroke-linejoin:miter;stroke-dasharray:none"
       id="path137" />
    <path
       d="m 425.754,505.5205 -0.1218,23.0961"
       style="fill:none;stroke:#1b1918;stroke-width:0.5102;stroke-linecap:butt;stroke-linejoin:miter;stroke-dasharray:none"
       id="path139" />
    <path
       d="m 403.9262,437.2884 -0.1218,23.0961"
       style="fill:none;stroke:#1b1918;stroke-width:0.5102;stroke-linecap:butt;stroke-linejoin:miter;stroke-dasharray:none"
       id="path141" />
    <path
       d="m 404.7346,528.8035 -0.1218,23.0961"
       style="fill:none;stroke:#1b1918;stroke-width:0.5102;stroke-linecap:butt;stroke-linejoin:miter;stroke-dasharray:none"
       id="path143" />
    <path
       d="m 404.4112,481.7524 -0.1217,23.0961"
       style="fill:none;stroke:#1b1918;stroke-width:0.5102;stroke-linecap:butt;stroke-linejoin:miter;stroke-dasharray:none"
       id="path145" />
    <path
       d="m 403.3508,391.0353 v 24.6541"
       style="fill:none;stroke:#1b1918;stroke-width:0.5102;stroke-linecap:butt;stroke-linejoin:miter;stroke-dasharray:none"
       id="path147" />
    <path
       d="m 282.1787,390.534 h 31.3432 l -5.8585,27.6154 h -19.0403 z"
       style="fill:#ffffff;fill-rule:evenodd;stroke:#1b1918;stroke-width:0.3969;stroke-linecap:butt;stroke-linejoin:miter;stroke-dasharray:none"
       id="path149" />
    <path
       d="m 356.9886,450.2986 v 130.3256 l -60.3449,-4.2661 -58.6057,4.2661 V 450.2986 c -0.4696,-5.3588 18.4915,-50.5244 61.1485,-47.3532 42.9625,-2.223 58.4387,42.469 57.8021,47.3532 z"
       style="fill:#ffffff;fill-rule:evenodd;stroke:#1b1918;stroke-width:0.2863;stroke-linecap:round;stroke-linejoin:round;stroke-dasharray:none"
       id="path151" />
    <path
       d="m 346.4127,457.4036 v 107.1189 l -49.5994,-3.5065 -48.17,3.5065 V 457.4036 c -0.386,-4.4047 15.1987,-41.5277 50.26,-38.9213 35.3122,-1.8271 48.0327,34.9068 47.5094,38.9213 z"
       style="fill:#1b1918;fill-rule:evenodd;stroke:#1b1918;stroke-width:0.7824;stroke-linecap:butt;stroke-linejoin:miter;stroke-dasharray:none"
       id="path153" />
    <g
       id="Layer1002">
      <path
         d="m 259.5729,464.4225 h 78.1895"
         style="fill:none;stroke:#ffec00;stroke-width:2.8346;stroke-linecap:round;stroke-linejoin:round;stroke-dasharray:none"
         id="path155" />
      <path
         d="M 265.3023,444.201 H 331.022"
         style="fill:none;stroke:#ffec00;stroke-width:2.8346;stroke-linecap:round;stroke-linejoin:round;stroke-dasharray:none"
         id="path157" />
      <path
         d="m 281.1425,429.372 v 44.4871"
         style="fill:none;stroke:#ffec00;stroke-width:2.8346;stroke-linecap:round;stroke-linejoin:round;stroke-dasharray:none"
         id="path159" />
      <path
         d="m 298.6677,427.0128 v 46.5093"
         style="fill:none;stroke:#ffec00;stroke-width:2.8346;stroke-linecap:round;stroke-linejoin:round;stroke-dasharray:none"
         id="path161" />
      <path
         d="m 315.8559,429.372 v 43.8131"
         style="fill:none;stroke:#ffec00;stroke-width:2.8346;stroke-linecap:round;stroke-linejoin:round;stroke-dasharray:none"
         id="path163" />
      <path
         d="m 331.022,444.201 v 28.9841"
         style="fill:none;stroke:#ffec00;stroke-width:2.8346;stroke-linecap:round;stroke-linejoin:round;stroke-dasharray:none"
         id="path165" />
      <path
         d="m 264.9653,444.201 v 28.6471"
         style="fill:none;stroke:#ffec00;stroke-width:2.8346;stroke-linecap:round;stroke-linejoin:round;stroke-dasharray:none"
         id="path167" />
    </g>
    <path
       d="m 202.9592,427.984 6.7668,-2.6406 c 14.8196,7.4807 23.6126,11.0872 35.419,36.6475 v 103.7424 l -42.2068,9.8955 z"
       style="fill:#ffec00;fill-rule:evenodd;stroke:#1b1918;stroke-width:2.8346;stroke-linecap:round;stroke-linejoin:round;stroke-dasharray:none"
       id="path170" />
    <path
       d="m 209.4162,426.2621 -0.1154,146.5823"
       style="fill:#ffec00;fill-rule:evenodd;stroke:#1b1918;stroke-width:2.8346;stroke-linecap:round;stroke-linejoin:round;stroke-dasharray:none"
       id="path172" />
    <path
       d="m 240.5064,485.5447 a 2.1166,2.1166 0 0 1 2.1167,2.1167 2.1166,2.1166 0 1 1 -2.1167,-2.1167 z"
       style="fill:#ffec00;fill-rule:evenodd;stroke:#1b1918;stroke-width:2.8346;stroke-linecap:round;stroke-linejoin:round;stroke-dasharray:none"
       id="path174" />
    <path
       d="m 244.0341,481.4878 -14.8164,0.0882 -5.1152,-6.1735 -4.7624,2.6458 1.9402,3.6159 -7.5846,5.8208 7.0555,5.7325 -2.2049,3.2632 5.3798,2.9986 5.2916,-5.3798 h 15.6984"
       style="fill:#ffec00;fill-rule:evenodd;stroke:#1b1918;stroke-width:2.8346;stroke-linecap:round;stroke-linejoin:round;stroke-dasharray:none"
       id="path176" />
    <path
       d="m 224.3671,485.3683 a 2.1166,2.1166 0 0 1 2.1166,2.1167 2.1166,2.1166 0 1 1 -2.1166,-2.1167 z"
       style="fill:#ffec00;fill-rule:evenodd;stroke:#1b1918;stroke-width:2.8346;stroke-linecap:round;stroke-linejoin:round;stroke-dasharray:none"
       id="path178" />
    <path
       d="m 240.5064,532.7911 a 2.1166,2.1166 0 0 1 2.1167,2.1166 2.1166,2.1166 0 1 1 -2.1167,-2.1166 z"
       style="fill:#ffec00;fill-rule:evenodd;stroke:#1b1918;stroke-width:2.8346;stroke-linecap:round;stroke-linejoin:round;stroke-dasharray:none"
       id="path180" />
    <path
       d="m 244.0341,528.7342 -14.8164,0.0882 -5.1152,-6.1735 -4.7624,2.6458 1.9402,3.6159 -7.5846,5.8207 7.0555,5.7326 -2.2049,3.2631 5.3798,2.9986 5.2916,-5.3798 h 15.6984"
       style="fill:#ffec00;fill-rule:evenodd;stroke:#1b1918;stroke-width:2.8346;stroke-linecap:round;stroke-linejoin:round;stroke-dasharray:none"
       id="path182" />
    <path
       d="m 224.3671,532.6147 a 2.1166,2.1166 0 0 1 2.1166,2.1166 2.1166,2.1166 0 1 1 -2.1166,-2.1166 z"
       style="fill:#ffec00;fill-rule:evenodd;stroke:#1b1918;stroke-width:2.8346;stroke-linecap:round;stroke-linejoin:round;stroke-dasharray:none"
       id="path184" />
    <path
       d="m 300.4028,234.1816 0.001,30.4713"
       style="fill:none;stroke:#1b1918;stroke-width:3.9685;stroke-linecap:butt;stroke-linejoin:miter;stroke-dasharray:none"
       id="path186" />
    <path
       d="m 300.6286,256.9285 a 6.2124,6.6723 0 0 1 6.2123,6.6723 6.2124,6.6723 0 1 1 -6.2123,-6.6723 z"
       style="fill:#1b1918;fill-rule:evenodd;stroke:#1b1918;stroke-width:0.9921;stroke-linecap:butt;stroke-linejoin:miter;stroke-dasharray:none"
       id="path188" />
    <path
       d="m 407.0472,278.0246 0.001,30.4713"
       style="fill:none;stroke:#1b1918;stroke-width:3.9685;stroke-linecap:butt;stroke-linejoin:miter;stroke-dasharray:none"
       id="path190" />
    <path
       d="m 407.2729,300.7715 a 6.2124,6.6723 0 0 1 6.2124,6.6723 6.2124,6.6723 0 1 1 -6.2124,-6.6723 z"
       style="fill:#1b1918;fill-rule:evenodd;stroke:#1b1918;stroke-width:0.9921;stroke-linecap:butt;stroke-linejoin:miter;stroke-dasharray:none"
       id="path192" />
    <path
       d="m 195.7995,275.8324 0.001,30.4714"
       style="fill:none;stroke:#1b1918;stroke-width:3.9685;stroke-linecap:butt;stroke-linejoin:miter;stroke-dasharray:none"
       id="path194" />
    <path
       d="m 196.0252,298.5794 a 6.2124,6.6723 0 0 1 6.2124,6.6723 6.2124,6.6723 0 1 1 -6.2124,-6.6723 z"
       style="fill:#1b1918;fill-rule:evenodd;stroke:#1b1918;stroke-width:0.9921;stroke-linecap:butt;stroke-linejoin:miter;stroke-dasharray:none"
       id="path196" />
    <path
       d="m 391.2726,427.984 -6.7668,-2.6406 c -14.8196,7.4807 -23.6126,11.0872 -35.419,36.6475 v 103.7424 l 42.5112,12.0373 z"
       style="fill:#ffec00;fill-rule:evenodd;stroke:#1b1918;stroke-width:2.8346;stroke-linecap:round;stroke-linejoin:round;stroke-dasharray:none"
       id="path198" />
    <path
       d="m 384.8156,426.2621 0.2204,148.6087"
       style="fill:#ffec00;fill-rule:evenodd;stroke:#1b1918;stroke-width:2.8346;stroke-linecap:round;stroke-linejoin:round;stroke-dasharray:none"
       id="path200" />
    <path
       d="m 353.7254,485.5447 a 2.1166,2.1166 0 0 0 -2.1166,2.1167 2.1166,2.1166 0 1 0 2.1166,-2.1167 z"
       style="fill:#ffec00;fill-rule:evenodd;stroke:#1b1918;stroke-width:2.8346;stroke-linecap:round;stroke-linejoin:round;stroke-dasharray:none"
       id="path202" />
    <path
       d="m 350.1977,481.4878 14.8164,0.0882 5.1152,-6.1735 4.7624,2.6458 -1.9402,3.6159 7.5846,5.8208 -7.0555,5.7325 2.2049,3.2632 -5.3798,2.9986 -5.2916,-5.3798 h -15.6984"
       style="fill:#ffec00;fill-rule:evenodd;stroke:#1b1918;stroke-width:2.8346;stroke-linecap:round;stroke-linejoin:round;stroke-dasharray:none"
       id="path204" />
    <path
       d="m 369.8647,485.3683 a 2.1166,2.1166 0 0 0 -2.1166,2.1167 2.1166,2.1166 0 1 0 2.1166,-2.1167 z"
       style="fill:#ffec00;fill-rule:evenodd;stroke:#1b1918;stroke-width:2.8346;stroke-linecap:round;stroke-linejoin:round;stroke-dasharray:none"
       id="path206" />
    <path
       d="m 353.7254,532.7911 a 2.1166,2.1166 0 0 0 -2.1166,2.1166 2.1166,2.1166 0 1 0 2.1166,-2.1166 z"
       style="fill:#ffec00;fill-rule:evenodd;stroke:#1b1918;stroke-width:2.8346;stroke-linecap:round;stroke-linejoin:round;stroke-dasharray:none"
       id="path208" />
    <path
       d="m 350.1977,528.7342 14.8164,0.0882 5.1152,-6.1735 4.7624,2.6458 -1.9402,3.6159 7.5846,5.8207 -7.0555,5.7326 2.2049,3.2631 -5.3798,2.9986 -5.2916,-5.3798 h -15.6984"
       style="fill:#ffec00;fill-rule:evenodd;stroke:#1b1918;stroke-width:2.8346;stroke-linecap:round;stroke-linejoin:round;stroke-dasharray:none"
       id="path210" />
    <path
       d="m 369.8647,532.6147 a 2.1166,2.1166 0 0 0 -2.1166,2.1166 2.1166,2.1166 0 1 0 2.1166,-2.1166 z"
       style="fill:#ffec00;fill-rule:evenodd;stroke:#1b1918;stroke-width:2.8346;stroke-linecap:round;stroke-linejoin:round;stroke-dasharray:none"
       id="path212" />
    <path
       d="m 297.6419,562.3286 c 92.6941,-0.1022 187.991,55.0173 188.3753,62.3272 0.3842,7.31 -68.5397,83.0566 -188.3774,82.2866 C 177.8022,706.1725 114.111,632.69 113.5314,624.7319 c -0.5795,-7.9581 91.4164,-62.3011 184.1105,-62.4033 z"
       style="fill:#5aa16e;fill-rule:evenodd;stroke:#1b1918;stroke-width:0.8504;stroke-linecap:butt;stroke-linejoin:miter;stroke-dasharray:none"
       id="path214" />
    <path
       d="M 63.4566,133.2281 H 531.8188 V 493.0723 C 533.5795,584.1484 471.5126,705.7699 292.1183,708.6618 136.0123,707.3552 64.7837,584.9843 63.4566,493.3583 Z"
       style="fill:none;stroke:#1b1918;stroke-width:5.6693;stroke-linecap:butt;stroke-linejoin:miter;stroke-dasharray:none"
       id="path216" />
  </g>
</svg>
