<?xml version="1.0" encoding="UTF-8" standalone="no"?>
<!-- Created with Inkscape (http://www.inkscape.org/) -->

<svg
   version="1.1"
   id="svg2"
   xml:space="preserve"
   width="258.66666"
   height="258.66666"
   viewBox="0 0 258.66666 258.66666"
   sodipodi:docname="Zagreb.eps"
   xmlns:inkscape="http://www.inkscape.org/namespaces/inkscape"
   xmlns:sodipodi="http://sodipodi.sourceforge.net/DTD/sodipodi-0.dtd"
   xmlns="http://www.w3.org/2000/svg"
   xmlns:svg="http://www.w3.org/2000/svg"><defs
     id="defs6" /><sodipodi:namedview
     id="namedview4"
     pagecolor="#ffffff"
     bordercolor="#666666"
     borderopacity="1.0"
     inkscape:pageshadow="2"
     inkscape:pageopacity="0.0"
     inkscape:pagecheckerboard="0" /><g
     id="g8"
     inkscape:groupmode="layer"
     inkscape:label="ink_ext_XXXXXX"
     transform="matrix(1.3333333,0,0,-1.3333333,0,258.66667)"><g
       id="g10"
       transform="scale(0.1)"><path
         d="M 2.59766,1933.23 H 1930.16 V 5.66797 H 2.59766 V 1933.23"
         style="fill:#ffffff;fill-opacity:1;fill-rule:evenodd;stroke:none"
         id="path12" /><path
         d="m 966.516,1848.14 -1.813,-0.1 c -12.578,-0.35 -321.469,-10.54 -485.527,-145.39 l -10.078,-8.29 c 0,0 101.332,-185.2 122.035,-223.03 -36.93,0 -148.735,0 -148.735,0 V 420.672 c 0,-2.492 2.868,-248.445 250.661,-248.445 0,0 207.125,0 225.113,0 12.887,-23.664 52.863,-81.52 135.608,-81.52 h 19 l -3.51,18.664 c -2.59,13.754 -3.88,28.465 -3.88,40.453 0,10.922 1.13,19.324 3.27,22.989 8.17,-0.067 63.56,-0.465 63.56,-0.465 h 107.48 c 247.78,0 250.66,245.953 250.66,248.445 V 1471.45 c 0,0 -111.82,0 -148.75,0 20.71,37.84 122.05,223.04 122.05,223.04 l -10.08,8.28 c -164.06,134.84 -472.631,145.03 -485.689,145.4 l -0.688,0.02 -0.687,-0.05"
         style="fill:#af8e2f;fill-opacity:1;fill-rule:evenodd;stroke:none"
         id="path14" /><path
         d="m 966.082,1816.56 c 0,0 0.824,0.05 1.508,0.09 8.305,-0.28 298.54,-11.27 455.56,-130.57 -11.91,-21.74 -134.7,-246.14 -134.7,-246.14 0,0 144.79,0 170.39,0 0,-30.56 0,-1019.147 0,-1019.147 -0.03,-8.832 -3.12,-216.934 -219.14,-216.934 0,0 -107.34,0 -107.43,0 -0.14,0 -70.09,0.508 -70.09,0.508 l -1.95,-0.492 c -20.99,-5.25 -26.59,-30.187 -26.59,-55.254 0,-8.57 0.66,-17.141 1.58,-24.957 -66.275,9.512 -91.572,67.656 -92.7,70.348 l -4.047,9.664 -10.508,0.062 H 693.059 c -216.024,0 -219.121,208.098 -219.149,216.946 0,0 0,988.576 0,1019.136 25.598,0 170.383,0 170.383,0 0,0 -122.777,224.39 -134.68,246.13 158.489,120.43 453.442,130.53 456.469,130.61"
         style="fill:#31328f;fill-opacity:1;fill-rule:evenodd;stroke:none"
         id="path16" /><path
         d="m 778.945,323.027 h -9.738 c 0,0 -12.824,-47.851 -14.301,-53.371 -1.879,5.43 -18.48,53.371 -18.48,53.371 H 723.91 l -19.035,-71.023 h 11.027 c 0,0 12.879,48.051 14.348,53.527 1.895,-5.351 18.941,-53.527 18.941,-53.527 h 12.008 l 19.035,71.023 h -1.289"
         style="fill:#af8e2f;fill-opacity:1;fill-rule:evenodd;stroke:none"
         id="path18" /><path
         d="M 850.621,323.027 H 837.59 c 0,0 -37.547,-29.004 -41.692,-32.218 1.266,4.742 8.633,32.218 8.633,32.218 h -11.148 l -19.035,-71.023 h 11.144 l 6.649,24.789 c 0,0 10.972,8.094 12.687,9.371 0.93,-2.109 15.078,-34.16 15.078,-34.16 h 14.371 c 0,0 -18.5,40.578 -19.129,41.961 1.215,0.906 38.403,29.062 38.403,29.062 h -2.93"
         style="fill:#af8e2f;fill-opacity:1;fill-rule:evenodd;stroke:none"
         id="path20" /><path
         d="m 877.801,262.098 c 3.426,3.187 55.008,51.281 55.008,51.281 l 2.402,8.402 0.332,1.246 h -1.281 -52.086 l -2.699,-10.093 c 0,0 33.742,0 38.105,0 -3.394,-3.2 -55.051,-51.762 -55.051,-51.762 l -2.465,-9.168 h 56.45 l 2.707,10.094 c 0,0 -36.993,0 -41.422,0"
         style="fill:#af8e2f;fill-opacity:1;fill-rule:evenodd;stroke:none"
         id="path22" /><path
         d="m 974.555,323.027 h -11.078 l -45.786,-71.023 h 11.934 c 0,0 12.473,19.805 13.031,20.68 1.008,0 24.004,0 25.664,0 0.133,-1.664 1.672,-20.68 1.672,-20.68 h 12.242 l -6.781,71.023 h -0.898 z m -7.016,-40.742 c -1.762,0 -15.984,0 -18.828,0 1.57,2.492 14.172,22.492 16.687,26.481 0.372,-4.621 1.997,-24.696 2.141,-26.481"
         style="fill:#af8e2f;fill-opacity:1;fill-rule:evenodd;stroke:none"
         id="path24" /><path
         d="m 1053.89,320.969 c -4.13,2.582 -9.54,3.906 -16.1,3.906 -9.52,0 -18.29,-3.371 -26.06,-10.035 -8.11,-6.922 -13.82,-16.387 -16.964,-28.106 -3.18,-11.851 -2.407,-21.343 2.269,-28.191 4.595,-5.586 11.105,-8.387 19.415,-8.387 6.36,0 11.99,1.199 16.75,3.574 0,0.012 5.82,4.122 8.76,6.2 -0.03,-2.356 -0.09,-7.926 -0.09,-7.926 h 7.79 l 10.43,38.894 h -32.33 l -2.6,-9.722 c 0,0 18.79,0 21.35,0 -2.21,-7.121 -5.49,-12.539 -9.96,-15.785 -4.77,-3.493 -10.16,-5.262 -16.02,-5.262 -7.62,0 -12.28,2.34 -14.26,7.141 -2.05,4.921 -2,11.46 0.13,19.445 2.48,9.262 6.48,16.324 11.87,20.973 5.36,4.632 11.11,6.972 17.09,6.972 5.03,0 8.93,-1.094 11.59,-3.219 2.58,-2.078 3.78,-5.492 3.55,-10.156 l -0.05,-1.031 h 11.16 l 0.09,0.879 c 0.13,1.246 0.19,2.43 0.19,3.57 0,7.508 -2.68,12.969 -8,16.266"
         style="fill:#af8e2f;fill-opacity:1;fill-rule:evenodd;stroke:none"
         id="path26" /><path
         d="m 1133.52,303.18 c 0.61,2.277 0.92,4.371 0.92,6.261 0,5.11 -2.21,8.86 -6.59,11.168 -3.08,1.602 -7.32,2.418 -12.62,2.418 h -31.34 -0.75 l -19.04,-71.023 h 11.51 c 0,0 7.59,28.266 7.96,29.664 1.4,0 19.85,0 19.85,0 3.5,0 5.97,-0.383 7.31,-1.141 2.21,-1.289 2.85,-3.922 1.95,-8.011 l -2.48,-11.555 -1.11,-5.57 c 0,-0.016 0.09,-3.559 0.09,-3.559 l 0.95,0.172 h 12.38 l 0.85,3.109 -0.73,0.356 c -0.34,0.164 -1.35,0.66 -1.35,3.23 0,0.043 0,0.074 0,0.106 0,0.015 0.88,5.644 0.88,5.644 l 2.12,9.266 c 0.48,2.121 0.72,3.937 0.72,5.476 0,1.586 -0.26,2.875 -0.77,3.895 -0.78,1.551 -2.49,2.691 -4.3,3.781 3.04,1.559 5.87,3.356 8.07,5.758 2.53,2.754 4.38,6.293 5.52,10.555 z m -20.3,9.754 c 2.9,0 5.09,-0.43 6.51,-1.262 1.74,-1.047 2.61,-2.738 2.61,-5.109 0,-1.122 -0.2,-2.399 -0.57,-3.829 -1.15,-4.281 -3.11,-7.261 -5.79,-8.847 -2.76,-1.664 -6.21,-2.492 -10.24,-2.492 0,0 -17.31,0 -19.57,0 0.58,2.152 5.43,20.246 5.77,21.539 1.42,0 21.28,0 21.28,0"
         style="fill:#af8e2f;fill-opacity:1;fill-rule:evenodd;stroke:none"
         id="path28" /><path
         d="m 1160.7,312.566 c 1.46,0 40.99,0 40.99,0 l 2.8,10.461 h -1.28 -50.85 l -19.03,-71.023 h 52.74 l 2.71,10.094 c 0,0 -39.19,0 -41.6,0 0.58,2.152 5.39,20.125 5.73,21.418 1.47,0 37.92,0 37.92,0 l 2.71,10.089 c 0,0 -35.52,0 -37.92,0 0.57,2.11 4.74,17.68 5.08,18.961"
         style="fill:#af8e2f;fill-opacity:1;fill-rule:evenodd;stroke:none"
         id="path30" /><path
         d="m 1262.64,304.703 c 0.45,1.727 0.69,3.387 0.69,4.938 0,2 -0.37,3.863 -1.13,5.558 -2.28,5.199 -7.75,7.828 -16.26,7.828 h -29.77 -0.76 l -19.03,-71.023 h 30.56 c 9.34,0 17.02,2.816 22.8,8.371 3.88,3.707 6.46,7.938 7.71,12.539 0.56,2.106 0.84,4.047 0.84,5.832 0,2.957 -0.77,5.461 -2.32,7.492 -1.12,1.477 -3.34,2.727 -5.7,3.907 1.75,1.078 5.49,3.371 5.49,3.371 3.35,2.91 5.68,6.679 6.88,11.187 z m -22.62,8.598 c 3.94,0 6.8,-0.414 8.49,-1.211 2.03,-0.969 3.03,-2.586 3.03,-4.926 0,-0.922 -0.15,-1.941 -0.46,-3.078 -1.13,-4.219 -3.46,-7.063 -7.15,-8.68 -2.38,-1.027 -5.51,-1.551 -9.32,-1.551 0,0 -13.67,0 -15.87,0 0.57,2.122 4.87,18.172 5.21,19.446 1.38,0 16.07,0 16.07,0 z m -10.77,-51.203 c 0,0 -16.77,0 -19.02,0 0.58,2.152 5.63,20.968 5.97,22.277 1.4,0 17.94,0 17.94,0 3.79,0 6.72,-0.461 8.71,-1.367 2.63,-1.184 3.94,-3.125 3.94,-5.91 0,-0.953 -0.16,-2.012 -0.47,-3.168 -0.74,-2.789 -2.12,-5.184 -4.09,-7.153 -3.15,-3.109 -7.52,-4.679 -12.98,-4.679"
         style="fill:#af8e2f;fill-opacity:1;fill-rule:evenodd;stroke:none"
         id="path32" /><path
         d="m 635.004,1280.31 18.07,34.69 H 616.93 l -17.844,34.25 -20.695,-34.25 h -37.438 l 18.715,-30.98 -20.793,-34.43 h 41.594 l 20.695,-34.25 17.836,34.25 h 32 l -15.996,30.72"
         style="fill:#af8e2f;fill-opacity:1;fill-rule:evenodd;stroke:none"
         id="path34" /><path
         d="m 1310.46,1382.48 c -5.73,0 -11.3,-0.64 -16.68,-1.81 33.51,-9.09 58.2,-39.65 58.2,-76.05 0,-37.85 -26.66,-69.45 -62.23,-77.1 6.61,-1.81 13.52,-2.84 20.71,-2.84 43.57,0 78.9,35.32 78.9,78.9 0,43.57 -35.33,78.9 -78.9,78.9"
         style="fill:#af8e2f;fill-opacity:1;fill-rule:evenodd;stroke:none"
         id="path36" /><path
         d="m 742.242,1421.04 126.305,0.53 c -2.621,9.03 -4.102,18.54 -4.102,28.41 0,5.37 0.539,10.61 1.344,15.75 -63.535,-17.33 -120.328,-43.21 -123.547,-44.69"
         style="fill:#af8e2f;fill-opacity:1;fill-rule:evenodd;stroke:none"
         id="path38" /><path
         d="m 1067.02,1463.02 c 0.55,-4.28 0.93,-8.61 0.93,-13.04 0,-9.58 -1.41,-18.81 -3.89,-27.59 l 109.78,0.59 c 0,0 -48.5,22.96 -106.82,40.04"
         style="fill:#af8e2f;fill-opacity:1;fill-rule:evenodd;stroke:none"
         id="path40" /><path
         d="m 620.203,1579.99 c 9.356,4.05 27.973,11.89 52.777,21.27 l -12.144,26.73 c -29.633,-12.13 -49.211,-21.57 -53.981,-23.91 l 13.348,-24.09"
         style="fill:#af8e2f;fill-opacity:1;fill-rule:evenodd;stroke:none"
         id="path42" /><path
         d="m 842.258,1628.01 c -6.477,-1.45 -12.934,-2.93 -19.34,-4.51 l 9.992,-44.22 c 6.906,1.6 13.715,3.08 20.418,4.47 l -11.07,44.26"
         style="fill:#af8e2f;fill-opacity:1;fill-rule:evenodd;stroke:none"
         id="path44" /><path
         d="m 1333.93,1637.41 26.36,45.13 c 0,0 -22.14,15.78 -65.88,34.37 l -24.19,-53.21 c 30.83,-11.5 53.28,-21.47 63.71,-26.29"
         style="fill:#af8e2f;fill-opacity:1;fill-rule:evenodd;stroke:none"
         id="path46" /><path
         d="m 1049.7,1589.18 5.63,46.05 c -30.15,5.22 -60.451,8.5 -89.135,8.5 -31.816,0 -66.047,-4.19 -100.132,-10.75 l 5.628,-45.68 c 34.317,6.23 65.684,9.47 93.473,9.47 26.899,0 55.476,-2.86 84.536,-7.59"
         style="fill:#af8e2f;fill-opacity:1;fill-rule:evenodd;stroke:none"
         id="path48" /><path
         d="m 650.953,1649.72 -24.402,53.7 c -37.5,-17.49 -57.391,-31.26 -57.391,-31.26 l 26.238,-47.38 c 3.571,1.8 23.84,11.84 55.555,24.94"
         style="fill:#af8e2f;fill-opacity:1;fill-rule:evenodd;stroke:none"
         id="path50" /><path
         d="m 785.816,1695.74 -11.734,57.79 c -33.48,-7.77 -63.195,-16.82 -88.883,-26.05 l 18.899,-57.34 c 24.539,8.74 52.16,17.64 81.718,25.6"
         style="fill:#af8e2f;fill-opacity:1;fill-rule:evenodd;stroke:none"
         id="path52" /><path
         d="m 1098.09,1626.58 c -6.48,1.49 -12.98,2.93 -19.54,4.27 l -11.18,-44.74 c 6.88,-1.29 13.75,-2.67 20.65,-4.15 l 10.07,44.62"
         style="fill:#af8e2f;fill-opacity:1;fill-rule:evenodd;stroke:none"
         id="path54" /><path
         d="m 974.07,1723.44 c 30.8,0 61.46,-2.51 91.23,-6.62 l 6.64,54.33 c -30.31,3.03 -62.87,4.83 -97.87,4.83 -44.906,0 -86.465,-3.25 -124.586,-8.55 l 6.852,-55.58 c 38.332,7.08 78.23,11.59 117.734,11.59"
         style="fill:#af8e2f;fill-opacity:1;fill-rule:evenodd;stroke:none"
         id="path56" /><path
         d="m 1260.31,1641.9 -15.69,-34.54 -3.2,0.97 c 29.15,-10.68 51.02,-19.84 61.33,-24.31 l 19.18,32.85 c -10.89,4.92 -32.51,14.29 -61.62,25.03"
         style="fill:#af8e2f;fill-opacity:1;fill-rule:evenodd;stroke:none"
         id="path58" /><path
         d="m 1217.52,1681.81 19.41,56.26 c -25.84,8.17 -55.75,15.93 -89.57,22.31 l -11.34,-56.46 c 29.28,-6.61 56.74,-14.29 81.5,-22.11"
         style="fill:#af8e2f;fill-opacity:1;fill-rule:evenodd;stroke:none"
         id="path60" /><path
         d="m 740.328,1528.5 c 6.715,-14.93 19.692,-43.75 26.293,-58.44 7.82,2.85 16.074,5.76 24.703,8.67 -4.633,14.23 -13.179,40.49 -19.461,59.78 -10.312,-3.11 -20.863,-6.5 -31.535,-10.01"
         style="fill:#af8e2f;fill-opacity:1;fill-rule:evenodd;stroke:none"
         id="path62" /><path
         d="m 1211.52,1522.73 c -2.31,0.77 -4.57,1.52 -6.85,2.29 l -10.46,3.29 -26.28,-59.88 c 3.8,-1.47 7.44,-2.88 10.91,-4.27 l 32.68,58.57"
         style="fill:#af8e2f;fill-opacity:1;fill-rule:evenodd;stroke:none"
         id="path64" /><path
         d="m 1160.87,1538.84 c -5.56,1.64 -11.05,3.23 -16.49,4.76 -7.79,-19.97 -18.13,-46.46 -22.9,-58.69 8.42,-2.73 16.54,-5.51 24.25,-8.26 5.88,13.39 18.49,42.13 25.82,58.82 l -10.68,3.37"
         style="fill:#af8e2f;fill-opacity:1;fill-rule:evenodd;stroke:none"
         id="path66" /><path
         d="m 1098.84,1491.91 c 7.65,19.61 17.89,45.85 22.58,57.88 -14.05,3.61 -27.73,6.84 -40.99,9.63 -2.74,-12.52 -9.16,-41.75 -12.96,-59.06 10.67,-2.61 21.17,-5.46 31.37,-8.45"
         style="fill:#af8e2f;fill-opacity:1;fill-rule:evenodd;stroke:none"
         id="path68" /><path
         d="m 833.379,1555.17 c -12.59,-2.99 -25.531,-6.35 -38.809,-10.06 3.434,-10.55 12.254,-37.64 19.239,-59.09 11.339,3.53 23.082,6.94 35.035,10.12 -4.778,18.23 -12.321,47.04 -15.465,59.03"
         style="fill:#af8e2f;fill-opacity:1;fill-rule:evenodd;stroke:none"
         id="path70" /><path
         d="m 1057.23,1563.94 c -33.84,6.07 -64.718,9.2 -92.066,9.2 -31.59,0 -68.121,-4.4 -108.695,-12.85 l 15.308,-58.43 c 2.696,0.61 5.399,1.23 8.102,1.81 17.965,28.82 49.855,48.06 86.316,48.06 32.426,0 61.215,-15.23 79.825,-38.87 l 11.21,51.08"
         style="fill:#af8e2f;fill-opacity:1;fill-rule:evenodd;stroke:none"
         id="path72" /><path
         d="m 1200.84,1455.09 c 13.11,-5.61 20.76,-9.26 20.76,-9.26 l -12.9,-22.85 48.69,83.37 c -7.82,2.92 -15.54,5.75 -23.22,8.49 l -33.33,-59.75"
         style="fill:#af8e2f;fill-opacity:1;fill-rule:evenodd;stroke:none"
         id="path74" /><path
         d="m 744.453,1461.74 -26.605,59.13 c -5.938,-2.07 -11.918,-4.2 -17.95,-6.38 l 30.165,-58.45 c 4.449,1.8 9.25,3.7 14.39,5.7"
         style="fill:#af8e2f;fill-opacity:1;fill-rule:evenodd;stroke:none"
         id="path76" /><path
         d="m 677.578,1506.21 c -4.543,-1.71 -9.062,-3.41 -13.652,-5.19 l 32.75,-59.15 c 1.203,0.55 5.207,2.36 11.496,5.06 l -30.594,59.28"
         style="fill:#af8e2f;fill-opacity:1;fill-rule:evenodd;stroke:none"
         id="path78" /><path
         d="m 1233.54,1585.85 -18.4,-39.4 c 2.74,-0.92 5.38,-1.84 8.07,-2.76 l 21.27,38.12 c -3.51,1.32 -7.17,2.66 -10.94,4.04"
         style="fill:#af8e2f;fill-opacity:1;fill-rule:evenodd;stroke:none"
         id="path80" /><path
         d="m 1194.58,1599.37 c -5.28,-11.31 -13.92,-29.82 -18.81,-40.33 5.62,-1.71 11.22,-3.44 16.75,-5.19 4.03,8.63 12.74,27.29 18.63,39.94 -5.35,1.85 -10.89,3.71 -16.57,5.58"
         style="fill:#af8e2f;fill-opacity:1;fill-rule:evenodd;stroke:none"
         id="path82" /><path
         d="m 1245.85,1535.75 c 8.09,-2.91 16.03,-5.82 23.64,-8.68 l 21.24,36.35 c -5.59,2.37 -13.78,5.78 -23.97,9.81 l -20.91,-37.48"
         style="fill:#af8e2f;fill-opacity:1;fill-rule:evenodd;stroke:none"
         id="path84" /><path
         d="m 1154.14,1568.62 17.73,37.99 c -16.66,5.14 -34.23,10.18 -52.41,14.8 l -8.69,-43.3 43.37,-9.49"
         style="fill:#af8e2f;fill-opacity:1;fill-rule:evenodd;stroke:none"
         id="path86" /><path
         d="m 698.426,1585.28 17.754,-39.95 c 5.258,1.8 10.472,3.55 15.652,5.26 l -14.293,41.46 c -6.633,-2.3 -13.004,-4.56 -19.113,-6.77"
         style="fill:#af8e2f;fill-opacity:1;fill-rule:evenodd;stroke:none"
         id="path88" /><path
         d="m 688.961,1535.68 c 1.613,0.59 3.25,1.2 4.859,1.78 l -17.597,39.58 c -2.485,-0.94 -4.848,-1.85 -7.184,-2.76 l 19.922,-38.6"
         style="fill:#af8e2f;fill-opacity:1;fill-rule:evenodd;stroke:none"
         id="path90" /><path
         d="m 754.336,1557.83 c 3.445,1.07 6.82,2.06 10.23,3.09 -0.214,0.66 -0.351,1.08 -0.351,1.08 l 46.258,12.34 -8.864,43.65 c -21.593,-5.79 -42.351,-12.11 -61.668,-18.42 l 14.395,-41.74"
         style="fill:#af8e2f;fill-opacity:1;fill-rule:evenodd;stroke:none"
         id="path92" /><path
         d="m 646.965,1565.52 c -6.195,-2.52 -11.402,-4.7 -15.242,-6.34 l 20.648,-37.29 c 4.797,1.88 9.539,3.67 14.289,5.48 l -19.695,38.15"
         style="fill:#af8e2f;fill-opacity:1;fill-rule:evenodd;stroke:none"
         id="path94" /><path
         d="m 945.426,1698.99 c -28.91,-1.6 -57.93,-5.48 -86.172,-10.81 l 3.891,-31.57 c 27.648,5.21 55.449,8.82 82.281,10.13 v 32.25"
         style="fill:#af8e2f;fill-opacity:1;fill-rule:evenodd;stroke:none"
         id="path96" /><path
         d="m 989.035,1699.5 v -32.75 c 22.765,-1.18 46.055,-4.01 69.175,-7.93 l 4.2,34.43 c -24.08,3.38 -48.7,5.57 -73.375,6.25"
         style="fill:#af8e2f;fill-opacity:1;fill-rule:evenodd;stroke:none"
         id="path98" /><path
         d="m 1156.56,1674.35 c -8.26,2.12 -16.64,4.2 -25.23,6.16 l -7.17,-35.7 c 7.27,-1.83 14.41,-3.74 21.47,-5.68 l 10.93,35.22"
         style="fill:#af8e2f;fill-opacity:1;fill-rule:evenodd;stroke:none"
         id="path100" /><path
         d="m 1179.39,1668.18 -11.04,-35.59 c 9.99,-2.98 19.76,-6.01 29.08,-9.04 l 12.28,35.63 c -9.68,3.05 -19.87,6.06 -30.32,9"
         style="fill:#af8e2f;fill-opacity:1;fill-rule:evenodd;stroke:none"
         id="path102" /><path
         d="m 759.16,1663.11 9.156,-29.76 c 9.34,2.76 18.817,5.46 28.536,8.04 l -6.266,30.87 c -10.785,-2.93 -21.215,-6.01 -31.426,-9.15"
         style="fill:#af8e2f;fill-opacity:1;fill-rule:evenodd;stroke:none"
         id="path104" /><path
         d="m 736.637,1655.96 c -8.625,-2.84 -17.059,-5.7 -25.051,-8.55 l 9.531,-28.93 c 7.895,2.66 16.168,5.34 24.59,7.99 l -9.07,29.49"
         style="fill:#af8e2f;fill-opacity:1;fill-rule:evenodd;stroke:none"
         id="path106" /><path
         d="m 969.488,1496.09 26.992,-14.54 22.85,22.84 -18.7,29.08 -29.064,-8.3 -2.078,-29.08"
         style="fill:#af8e2f;fill-opacity:1;fill-rule:evenodd;stroke:none"
         id="path108" /><path
         d="m 1008.94,1467.02 v -24.91 l 29.07,-12.47 18.69,20.76 -14.54,27.01 -33.22,-10.39"
         style="fill:#af8e2f;fill-opacity:1;fill-rule:evenodd;stroke:none"
         id="path110" /><path
         d="m 1000.63,1427.57 -22.837,-12.46 2.078,-31.15 31.149,-2.07 12.46,24.91 -22.85,20.77"
         style="fill:#af8e2f;fill-opacity:1;fill-rule:evenodd;stroke:none"
         id="path112" /><path
         d="m 957.031,1419.26 -22.843,24.92 -29.067,-8.3 -2.078,-35.31 35.301,-8.3 18.687,26.99"
         style="fill:#af8e2f;fill-opacity:1;fill-rule:evenodd;stroke:none"
         id="path114" /><path
         d="m 936.266,1462.87 14.535,22.84 -16.613,24.92 -35.297,-12.47 6.23,-33.21 31.145,-2.08"
         style="fill:#af8e2f;fill-opacity:1;fill-rule:evenodd;stroke:none"
         id="path116" /><path
         d="m 900.965,1392.27 -18.684,12.45 -2.078,-12.45 20.762,-22.84 h 10.383 l -10.383,22.84"
         style="fill:#af8e2f;fill-opacity:1;fill-rule:evenodd;stroke:none"
         id="path118" /><path
         d="m 1021.41,1375.66 -18.7,-18.69 8.31,-6.23 29.07,16.61 4.15,12.46 -22.83,-4.15"
         style="fill:#af8e2f;fill-opacity:1;fill-rule:evenodd;stroke:none"
         id="path120" /><path
         d="m 1282.27,497.758 c 0,2.246 0,356.055 0,368.32 4.85,0 16.62,0 16.62,0 v 72.961 h -34.02 c -1.37,59.902 -5.68,248.791 -5.91,259.241 3.95,0 14.37,0 14.37,0 v 58.15 h -6.37 -167.69 v -58.15 c 0,0 10.41,0 14.38,0 -0.29,-12.43 -6.34,-277.35 -6.34,-277.35 l 1.26,-4.418 c -5.74,0 -12.21,0 -17.34,0 0,6.539 0,22.527 0,22.527 h -23.46 c -0.87,34.953 -7.7,311.571 -8.05,325.971 5.22,0 18.49,0 18.49,0 v 69.75 h -7.87 -215.535 v -69.75 c 0,0 13.285,0 18.496,0 -0.36,-14.45 -7.231,-292.737 -8.063,-326.276 h -23.453 c 0,0 0,-15.988 0,-22.527 -3.531,0 -7.695,0 -11.828,0 l 1.34,4.723 c 0,0 -6.043,264.92 -6.324,277.35 3.961,0 14.371,0 14.371,0 v 58.15 h -6.367 -167.688 v -58.15 c 0,0 10.41,0 14.371,0 -0.234,-10.47 -4.566,-199.967 -5.926,-259.546 H 634.137 V 865.77 c 0,0 11.769,0 16.609,0 0,-12.262 0,-366.09 0,-368.336 -0.789,-2.125 -73.605,-197.825 -73.605,-197.825 l 17.347,13.02 c 1.231,0.918 124.02,92.945 216.285,92.945 l 311.477,-0.476 c 92.26,0 215.06,-91.239 216.29,-92.164 l 17.34,-13 c 0,0 -72.82,195.699 -73.61,197.824"
         style="fill:#af8e2f;fill-opacity:1;fill-rule:evenodd;stroke:none"
         id="path122" /><path
         d="m 976.145,1071.87 v -21.62 h 73.115 c -0.17,7.07 -0.35,14.29 -0.53,21.62 h -72.585"
         style="fill:#31328f;fill-opacity:1;fill-rule:evenodd;stroke:none"
         id="path124" /><path
         d="m 1030.13,1034.49 v -25.77 h 20.16 c -0.2,8.17 -0.42,16.8 -0.63,25.77 h -19.53"
         style="fill:#31328f;fill-opacity:1;fill-rule:evenodd;stroke:none"
         id="path126" /><path
         d="m 1014.38,1034.49 h -90.146 v -25.77 h 90.146 v 25.77"
         style="fill:#31328f;fill-opacity:1;fill-rule:evenodd;stroke:none"
         id="path128" /><path
         d="m 1050.68,992.965 h -76.61 v -21.617 h 77.14 c -0.15,6.492 -0.34,13.738 -0.53,21.617"
         style="fill:#31328f;fill-opacity:1;fill-rule:evenodd;stroke:none"
         id="path130" /><path
         d="m 932.543,1166.52 h 75.597 v 21.63 h -75.597 v -21.63"
         style="fill:#31328f;fill-opacity:1;fill-rule:evenodd;stroke:none"
         id="path132" /><path
         d="m 976.145,1131.23 h 56.925 v 19.54 h -56.925 v -19.54"
         style="fill:#31328f;fill-opacity:1;fill-rule:evenodd;stroke:none"
         id="path134" /><path
         d="m 893.945,1265.01 h -4.886 c -0.145,-5.86 -0.325,-13.17 -0.536,-21.65 h 5.422 v 21.65"
         style="fill:#31328f;fill-opacity:1;fill-rule:evenodd;stroke:none"
         id="path136" /><path
         d="m 960.391,1227.6 h -72.254 c -0.184,-7.37 -0.379,-15.33 -0.59,-23.69 h 72.844 v 23.69"
         style="fill:#31328f;fill-opacity:1;fill-rule:evenodd;stroke:none"
         id="path138" /><path
         d="m 907.625,1131.23 h 52.766 v 19.54 h -52.766 v -19.54"
         style="fill:#31328f;fill-opacity:1;fill-rule:evenodd;stroke:none"
         id="path140" /><path
         d="m 909.699,1265.01 v -21.65 h 5.012 v 21.65 h -5.012"
         style="fill:#31328f;fill-opacity:1;fill-rule:evenodd;stroke:none"
         id="path142" /><path
         d="m 1011.45,1265.01 v -21.65 h 15.39 v 21.65 h -15.39"
         style="fill:#31328f;fill-opacity:1;fill-rule:evenodd;stroke:none"
         id="path144" /><path
         d="m 976.145,1203.91 h 69.325 c -0.21,8.36 -0.4,16.32 -0.58,23.69 h -68.745 v -23.69"
         style="fill:#31328f;fill-opacity:1;fill-rule:evenodd;stroke:none"
         id="path146" /><path
         d="m 1044.67,1319 v -21.64 h -15.76 V 1319 c -5.67,0 -11.6,0 -17.46,0 v -21.64 H 995.695 V 1319 c -6.613,0 -12.632,0 -17.48,0 v -21.64 h -15.75 V 1319 c -3.789,0 -9.992,0 -17.465,0 v -21.64 H 929.246 V 1319 c -5.711,0 -11.641,0 -17.469,0 v -21.64 H 896.023 V 1319 c -11.832,0 -21.558,0 -25.46,0 0,-9.53 0,-28.7 0,-38.23 2.507,0 6.894,0 10.812,0 4.32,0 8.074,0 8.074,0 h 154.121 c 0,0 3.76,0 8.07,0 3.92,0 8.31,0 10.82,0 0,9.53 0,28.7 0,38.23 -3.02,0 -9.53,0 -17.79,0"
         style="fill:#31328f;fill-opacity:1;fill-rule:evenodd;stroke:none"
         id="path148" /><path
         d="m 891.867,1150.77 h -5.629 c -0.16,-6.45 -0.32,-12.97 -0.484,-19.54 h 6.113 v 19.54"
         style="fill:#31328f;fill-opacity:1;fill-rule:evenodd;stroke:none"
         id="path150" /><path
         d="m 908.477,1034.49 h -25.11 c -0.222,-8.97 -0.433,-17.6 -0.633,-25.77 h 25.743 v 25.77"
         style="fill:#31328f;fill-opacity:1;fill-rule:evenodd;stroke:none"
         id="path152" /><path
         d="m 912.633,1115.47 h -27.266 c -0.23,-9.29 -0.461,-18.61 -0.687,-27.85 h 27.953 v 27.85"
         style="fill:#31328f;fill-opacity:1;fill-rule:evenodd;stroke:none"
         id="path154" /><path
         d="m 960.391,1071.87 h -76.102 c -0.18,-7.33 -0.355,-14.55 -0.531,-21.62 h 76.633 v 21.62"
         style="fill:#31328f;fill-opacity:1;fill-rule:evenodd;stroke:none"
         id="path156" /><path
         d="m 1023.9,955.598 v -30.543 h -15.76 v 30.543 h -75.597 v -26.391 h -15.758 v 26.391 h -35.367 c -0.273,-11.078 -0.438,-17.668 -0.445,-18.004 0.543,-1.754 4.183,-13.606 6.218,-20.203 10.102,0 148.539,0 158.629,0 2.05,6.597 5.68,18.449 6.22,20.203 0,0.336 -0.17,6.926 -0.43,18.004 h -27.71"
         style="fill:#31328f;fill-opacity:1;fill-rule:evenodd;stroke:none"
         id="path158" /><path
         d="M 958.313,992.965 H 882.34 c -0.192,-7.879 -0.375,-15.125 -0.531,-21.617 h 76.504 v 21.617"
         style="fill:#31328f;fill-opacity:1;fill-rule:evenodd;stroke:none"
         id="path160" /><path
         d="m 1030.13,1115.47 v -27.85 h 18.21 c -0.22,9.24 -0.45,18.56 -0.68,27.85 h -17.53"
         style="fill:#31328f;fill-opacity:1;fill-rule:evenodd;stroke:none"
         id="path162" /><path
         d="M 916.785,1188.15 H 887.16 c -0.176,-7.01 -0.351,-14.23 -0.535,-21.63 h 30.16 v 21.63"
         style="fill:#31328f;fill-opacity:1;fill-rule:evenodd;stroke:none"
         id="path164" /><path
         d="m 1023.9,1188.15 v -21.63 h 22.49 c -0.18,7.4 -0.35,14.62 -0.53,21.63 h -21.96"
         style="fill:#31328f;fill-opacity:1;fill-rule:evenodd;stroke:none"
         id="path166" /><path
         d="m 1014.38,1115.47 h -85.993 v -27.85 h 85.993 v 27.85"
         style="fill:#31328f;fill-opacity:1;fill-rule:evenodd;stroke:none"
         id="path168" /><path
         d="m 930.465,1243.36 h 65.23 v 21.65 h -65.23 v -21.65"
         style="fill:#31328f;fill-opacity:1;fill-rule:evenodd;stroke:none"
         id="path170" /><path
         d="m 1042.59,1243.36 h 1.91 c -0.21,8.48 -0.4,15.79 -0.54,21.65 h -1.37 v -21.65"
         style="fill:#31328f;fill-opacity:1;fill-rule:evenodd;stroke:none"
         id="path172" /><path
         d="m 813.418,1146.38 c -0.164,7.23 -0.32,14.1 -0.469,20.44 h -52.898 v -20.44 h 53.367"
         style="fill:#31328f;fill-opacity:1;fill-rule:evenodd;stroke:none"
         id="path174" /><path
         d="m 760.051,1085.25 h 43.726 v 16.96 h -43.726 v -16.96"
         style="fill:#31328f;fill-opacity:1;fill-rule:evenodd;stroke:none"
         id="path176" /><path
         d="m 801.992,1072.52 v -23.93 h 13.656 c -0.179,7.94 -0.363,15.93 -0.546,23.93 h -13.11"
         style="fill:#31328f;fill-opacity:1;fill-rule:evenodd;stroke:none"
         id="path178" /><path
         d="m 789.262,1048.59 v 23.93 h -66.317 v -23.93 h 66.317"
         style="fill:#31328f;fill-opacity:1;fill-rule:evenodd;stroke:none"
         id="path180" /><path
         d="m 784.418,1114.95 v 18.69 h -58.242 v -18.69 h 58.242"
         style="fill:#31328f;fill-opacity:1;fill-rule:evenodd;stroke:none"
         id="path182" /><path
         d="m 747.316,1085.25 v 16.96 h -40.503 v -16.96 h 40.503"
         style="fill:#31328f;fill-opacity:1;fill-rule:evenodd;stroke:none"
         id="path184" /><path
         d="m 789.262,982.227 v 22.183 h -69.539 v -22.183 h 69.539"
         style="fill:#31328f;fill-opacity:1;fill-rule:evenodd;stroke:none"
         id="path186" /><path
         d="m 817.453,969.484 h -59.015 v -18.691 h 59.441 c -0.129,5.602 -0.274,11.867 -0.426,18.691"
         style="fill:#31328f;fill-opacity:1;fill-rule:evenodd;stroke:none"
         id="path188" /><path
         d="m 797.148,1133.64 v -18.69 h 16.989 c -0.145,6.39 -0.289,12.66 -0.426,18.69 h -16.563"
         style="fill:#31328f;fill-opacity:1;fill-rule:evenodd;stroke:none"
         id="path190" /><path
         d="m 695.695,1198.28 h -3.297 c -0.109,-4.98 -0.257,-11.37 -0.429,-18.71 h 3.726 v 18.71"
         style="fill:#31328f;fill-opacity:1;fill-rule:evenodd;stroke:none"
         id="path192" /><path
         d="m 801.992,1004.41 v -22.183 h 15.168 c -0.16,7.031 -0.328,14.437 -0.504,22.183 h -14.664"
         style="fill:#31328f;fill-opacity:1;fill-rule:evenodd;stroke:none"
         id="path194" /><path
         d="m 760.051,1035.84 v -18.69 h 56.312 c -0.14,6.12 -0.281,12.37 -0.422,18.69 h -55.89"
         style="fill:#31328f;fill-opacity:1;fill-rule:evenodd;stroke:none"
         id="path196" /><path
         d="m 713.441,1133.64 h -22.515 c -0.141,-6.03 -0.281,-12.3 -0.426,-18.69 h 22.941 v 18.69"
         style="fill:#31328f;fill-opacity:1;fill-rule:evenodd;stroke:none"
         id="path198" /><path
         d="m 745.703,969.484 h -58.527 c -0.156,-6.824 -0.297,-13.089 -0.426,-18.691 h 58.953 v 18.691"
         style="fill:#31328f;fill-opacity:1;fill-rule:evenodd;stroke:none"
         id="path200" /><path
         d="m 706.992,1004.41 h -19.019 c -0.176,-7.746 -0.344,-15.152 -0.504,-22.183 h 19.523 v 22.183"
         style="fill:#31328f;fill-opacity:1;fill-rule:evenodd;stroke:none"
         id="path202" /><path
         d="m 747.316,1035.84 h -58.625 c -0.144,-6.32 -0.285,-12.57 -0.429,-18.69 h 59.054 v 18.69"
         style="fill:#31328f;fill-opacity:1;fill-rule:evenodd;stroke:none"
         id="path204" /><path
         d="m 710.219,1072.52 h -20.688 c -0.187,-8 -0.367,-15.99 -0.547,-23.93 h 21.235 v 23.93"
         style="fill:#31328f;fill-opacity:1;fill-rule:evenodd;stroke:none"
         id="path206" /><path
         d="m 811.664,1179.57 h 0.996 c -0.168,7.34 -0.312,13.73 -0.426,18.71 h -0.57 v -18.71"
         style="fill:#31328f;fill-opacity:1;fill-rule:evenodd;stroke:none"
         id="path208" /><path
         d="m 813.281,1243.69 v -18.45 h -12.734 v 18.45 c -4.258,0 -8.676,0 -13.078,0 v -18.45 h -12.731 v 18.45 c -4.933,0 -9.425,0 -13.082,0 v -18.45 h -12.73 v 18.45 c -2.91,0 -7.516,0 -13.078,0 v -18.45 h -12.731 v 18.45 c -4.297,0 -8.707,0 -13.082,0 v -18.45 h -12.734 v 18.45 c -8.871,0 -16.215,0 -19.278,0 0,-7.88 0,-24.79 0,-32.67 1.868,0 5.153,0 8.149,0 3.457,0 6.519,0 6.519,0 h 119.254 c 0,0 3.059,0 6.512,0 3,0 6.289,0 8.152,0 0,7.88 0,24.79 0,32.67 -2.336,0 -7.226,0 -13.328,0"
         style="fill:#31328f;fill-opacity:1;fill-rule:evenodd;stroke:none"
         id="path210" /><path
         d="m 797.148,938.055 v -25.93 h -12.73 v 25.93 h -58.242 v -22.434 h -12.735 v 22.434 h -26.98 c -0.215,-9.496 -0.352,-15.235 -0.356,-15.492 0.379,-1.344 3.293,-11.59 4.875,-17.141 8.274,0 114.399,0 122.668,0 1.582,5.551 4.493,15.797 4.872,17.141 -0.004,0.257 -0.137,5.996 -0.356,15.492 h -21.016"
         style="fill:#31328f;fill-opacity:1;fill-rule:evenodd;stroke:none"
         id="path212" /><path
         d="m 787.469,1179.57 h 11.465 v 18.71 h -11.465 v -18.71"
         style="fill:#31328f;fill-opacity:1;fill-rule:evenodd;stroke:none"
         id="path214" /><path
         d="m 724.559,1179.57 h 50.179 v 18.71 h -50.179 v -18.71"
         style="fill:#31328f;fill-opacity:1;fill-rule:evenodd;stroke:none"
         id="path216" /><path
         d="m 747.316,1166.82 h -55.632 c -0.149,-6.34 -0.305,-13.21 -0.469,-20.44 h 56.101 v 20.44"
         style="fill:#31328f;fill-opacity:1;fill-rule:evenodd;stroke:none"
         id="path218" /><path
         d="m 694.078,1102.21 h -3.875 c -0.125,-5.59 -0.254,-11.25 -0.387,-16.96 h 4.262 v 16.96"
         style="fill:#31328f;fill-opacity:1;fill-rule:evenodd;stroke:none"
         id="path220" /><path
         d="m 708.43,1179.57 h 3.398 v 18.71 h -3.398 v -18.71"
         style="fill:#31328f;fill-opacity:1;fill-rule:evenodd;stroke:none"
         id="path222" /><path
         d="m 1235.97,1004.41 v -22.183 h 15.17 c -0.16,7.031 -0.32,14.437 -0.51,22.183 h -14.66"
         style="fill:#31328f;fill-opacity:1;fill-rule:evenodd;stroke:none"
         id="path224" /><path
         d="m 1194.03,1035.84 v -18.69 h 56.31 c -0.14,6.12 -0.27,12.37 -0.42,18.69 h -55.89"
         style="fill:#31328f;fill-opacity:1;fill-rule:evenodd;stroke:none"
         id="path226" /><path
         d="m 1223.24,1004.41 h -69.53 v -22.183 h 69.53 v 22.183"
         style="fill:#31328f;fill-opacity:1;fill-rule:evenodd;stroke:none"
         id="path228" /><path
         d="m 1194.03,1085.25 h 43.73 v 16.96 h -43.73 v -16.96"
         style="fill:#31328f;fill-opacity:1;fill-rule:evenodd;stroke:none"
         id="path230" /><path
         d="m 1140.79,1085.25 h 40.51 v 16.96 h -40.51 v -16.96"
         style="fill:#31328f;fill-opacity:1;fill-rule:evenodd;stroke:none"
         id="path232" /><path
         d="m 1160.16,1114.95 h 58.24 v 18.69 h -58.24 v -18.69"
         style="fill:#31328f;fill-opacity:1;fill-rule:evenodd;stroke:none"
         id="path234" /><path
         d="m 1251.43,969.484 h -59.01 v -18.691 h 59.44 c -0.13,5.602 -0.27,11.867 -0.43,18.691"
         style="fill:#31328f;fill-opacity:1;fill-rule:evenodd;stroke:none"
         id="path236" /><path
         d="m 1129.67,1198.28 h -3.28 c -0.12,-4.98 -0.26,-11.37 -0.43,-18.71 h 3.71 v 18.71"
         style="fill:#31328f;fill-opacity:1;fill-rule:evenodd;stroke:none"
         id="path238" /><path
         d="m 1221.45,1198.28 v -18.71 h 11.47 v 18.71 h -11.47"
         style="fill:#31328f;fill-opacity:1;fill-rule:evenodd;stroke:none"
         id="path240" /><path
         d="m 1181.3,1166.83 h -55.64 c -0.13,-6.34 -0.3,-13.21 -0.45,-20.45 h 56.09 v 20.45"
         style="fill:#31328f;fill-opacity:1;fill-rule:evenodd;stroke:none"
         id="path242" /><path
         d="m 1194.03,1146.38 h 53.37 c -0.17,7.24 -0.32,14.11 -0.47,20.45 h -52.9 v -20.45"
         style="fill:#31328f;fill-opacity:1;fill-rule:evenodd;stroke:none"
         id="path244" /><path
         d="m 1142.41,1198.28 v -18.71 h 3.4 v 18.71 h -3.4"
         style="fill:#31328f;fill-opacity:1;fill-rule:evenodd;stroke:none"
         id="path246" /><path
         d="m 1231.13,938.055 v -25.93 h -12.73 v 25.93 h -58.24 v -22.434 h -12.73 v 22.434 h -26.99 c -0.21,-9.496 -0.35,-15.235 -0.35,-15.492 0.37,-1.344 3.3,-11.59 4.88,-17.141 8.26,0 114.39,0 122.66,0 1.58,5.551 4.5,15.797 4.87,17.141 0,0.257 -0.12,5.996 -0.35,15.492 h -21.02"
         style="fill:#31328f;fill-opacity:1;fill-rule:evenodd;stroke:none"
         id="path248" /><path
         d="m 1181.3,1035.84 h -58.62 c -0.15,-6.32 -0.29,-12.57 -0.43,-18.69 h 59.05 v 18.69"
         style="fill:#31328f;fill-opacity:1;fill-rule:evenodd;stroke:none"
         id="path250" /><path
         d="m 1140.98,1004.41 h -19.02 c -0.18,-7.746 -0.35,-15.152 -0.51,-22.183 h 19.53 v 22.183"
         style="fill:#31328f;fill-opacity:1;fill-rule:evenodd;stroke:none"
         id="path252" /><path
         d="m 1223.24,1072.52 h -66.31 v -23.93 h 66.31 v 23.93"
         style="fill:#31328f;fill-opacity:1;fill-rule:evenodd;stroke:none"
         id="path254" /><path
         d="m 1128.06,1102.21 h -3.87 c -0.13,-5.59 -0.26,-11.25 -0.39,-16.96 h 4.26 v 16.96"
         style="fill:#31328f;fill-opacity:1;fill-rule:evenodd;stroke:none"
         id="path256" /><path
         d="m 1247.27,1243.7 v -18.46 h -12.74 v 18.46 c -4.26,0 -8.67,0 -13.08,0 v -18.46 h -12.73 v 18.46 c -4.94,0 -9.42,0 -13.08,0 v -18.46 h -12.73 v 18.46 c -2.92,0 -7.52,0 -13.08,0 v -18.46 h -12.73 v 18.46 c -4.29,0 -8.71,0 -13.08,0 v -18.46 h -12.73 v 18.46 c -8.88,0 -16.23,0 -19.29,0 0,-7.88 0,-24.8 0,-32.68 1.88,0 5.16,0 8.16,0 3.46,0 6.52,0 6.52,0 h 119.25 c 0,0 3.06,0 6.5,0 3,0 6.3,0 8.17,0 0,7.88 0,24.8 0,32.68 -2.34,0 -7.23,0 -13.33,0"
         style="fill:#31328f;fill-opacity:1;fill-rule:evenodd;stroke:none"
         id="path258" /><path
         d="m 1179.69,969.484 h -58.53 c -0.16,-6.824 -0.29,-13.089 -0.43,-18.691 h 58.96 v 18.691"
         style="fill:#31328f;fill-opacity:1;fill-rule:evenodd;stroke:none"
         id="path260" /><path
         d="m 1144.2,1072.52 h -20.68 c -0.19,-8 -0.38,-15.99 -0.56,-23.93 h 21.24 v 23.93"
         style="fill:#31328f;fill-opacity:1;fill-rule:evenodd;stroke:none"
         id="path262" /><path
         d="m 1231.13,1133.64 v -18.69 h 16.98 c -0.14,6.39 -0.28,12.66 -0.42,18.69 h -16.56"
         style="fill:#31328f;fill-opacity:1;fill-rule:evenodd;stroke:none"
         id="path264" /><path
         d="m 1235.97,1072.52 v -23.93 h 13.66 c -0.18,7.94 -0.36,15.93 -0.55,23.93 h -13.11"
         style="fill:#31328f;fill-opacity:1;fill-rule:evenodd;stroke:none"
         id="path266" /><path
         d="m 1147.43,1133.64 h -22.52 c -0.14,-6.03 -0.28,-12.3 -0.43,-18.69 h 22.95 v 18.69"
         style="fill:#31328f;fill-opacity:1;fill-rule:evenodd;stroke:none"
         id="path268" /><path
         d="m 1245.65,1179.57 h 0.99 c -0.17,7.34 -0.32,13.73 -0.42,18.71 h -0.57 v -18.71"
         style="fill:#31328f;fill-opacity:1;fill-rule:evenodd;stroke:none"
         id="path270" /><path
         d="m 1158.54,1179.57 h 50.18 v 18.71 h -50.18 v -18.71"
         style="fill:#31328f;fill-opacity:1;fill-rule:evenodd;stroke:none"
         id="path272" /><path
         d="m 847.699,865.77 h -82.785 v -34.915 h 82.785 v 34.915"
         style="fill:#31328f;fill-opacity:1;fill-rule:evenodd;stroke:none"
         id="path274" /><path
         d="M 1063.65,865.77 H 860.43 v -34.915 h 25.75 c 8.621,12.114 30.617,33.083 80.015,33.083 47.225,0 72.325,-20.125 83.585,-33.083 h 13.87 v 34.915"
         style="fill:#31328f;fill-opacity:1;fill-rule:evenodd;stroke:none"
         id="path276" /><path
         d="m 1186.16,865.77 h -109.78 v -34.915 h 109.78 v 34.915"
         style="fill:#31328f;fill-opacity:1;fill-rule:evenodd;stroke:none"
         id="path278" /><path
         d="m 1286.15,877.938 c 0,8.988 0,39.375 0,48.359 -5.31,0 -13.82,0 -20.99,0 0.07,-3.383 0.12,-5.367 0.12,-5.367 l -8.03,-28.25 h -141.89 l -3.16,11.093 h -33.7 c 0,0 0,15.969 0,22.524 -4.15,0 -8.87,0 -13.44,0 l -7.6,-24.664 H 875.559 l -7.5,24.359 c -4.598,0 -9.371,0 -13.543,0 0,-6.554 0,-22.523 0,-22.523 H 826.332 L 823.27,892.68 H 681.367 l -8.039,28.25 c 0,0 0.043,1.879 0.113,5.062 -7.753,0 -19.765,0 -26.57,0 0,-8.988 0,-38.512 0,-47.484 l 639.279,-0.57"
         style="fill:#31328f;fill-opacity:1;fill-rule:evenodd;stroke:none"
         id="path280" /><path
         d="m 1198.89,830.855 h 70.65 v 34.915 h -70.65 v -34.915"
         style="fill:#31328f;fill-opacity:1;fill-rule:evenodd;stroke:none"
         id="path282" /><path
         d="m 752.18,865.77 h -88.7 v -34.915 h 88.7 v 34.915"
         style="fill:#31328f;fill-opacity:1;fill-rule:evenodd;stroke:none"
         id="path284" /><path
         d="m 1058.21,818.117 c 3.66,-8.508 18.72,-39.312 45.02,-39.312 20.45,0 29.48,24.465 33.08,39.312 h -78.1"
         style="fill:#31328f;fill-opacity:1;fill-rule:evenodd;stroke:none"
         id="path286" /><path
         d="m 807.977,818.117 c 2.625,-10.14 8.117,-19.476 15.359,-25.617 4.574,-3.863 12.086,-8.309 21.891,-7.496 15.07,1.266 28.23,21.496 34.078,33.113 h -71.328"
         style="fill:#31328f;fill-opacity:1;fill-rule:evenodd;stroke:none"
         id="path288" /><path
         d="m 1001.93,777.605 c -7.789,4.969 -16.114,8.727 -24.742,10.555 v -53.527 h 24.742 v 42.972"
         style="fill:#31328f;fill-opacity:1;fill-rule:evenodd;stroke:none"
         id="path290" /><path
         d="M 997.68,847.398 985.984,802.27 c 2.743,-0.801 5.442,-1.801 8.11,-2.891 l 22.926,40.91 c -5.47,2.754 -11.94,5.199 -19.34,7.109"
         style="fill:#31328f;fill-opacity:1;fill-rule:evenodd;stroke:none"
         id="path292" /><path
         d="m 966.91,805.16 c 1.172,-0.012 2.324,-0.183 3.488,-0.262 l 11.743,45.313 c -4.985,0.59 -10.231,0.988 -15.946,0.988 -2.715,0 -5.234,-0.14 -7.757,-0.277 l 8.472,-45.762"
         style="fill:#31328f;fill-opacity:1;fill-rule:evenodd;stroke:none"
         id="path294" /><path
         d="m 977.188,682.715 h 24.742 v 36.16 h -24.742 v -36.16"
         style="fill:#31328f;fill-opacity:1;fill-rule:evenodd;stroke:none"
         id="path296" /><path
         d="m 1017.68,765.574 v -30.941 h 26.44 c -6,9.324 -15.21,20.832 -26.44,30.941"
         style="fill:#31328f;fill-opacity:1;fill-rule:evenodd;stroke:none"
         id="path298" /><path
         d="m 1071.82,777.867 -23.33,-21.879 c 4.44,-5.679 8.21,-11.265 11.2,-16.465 l 37.44,26.989 c -9.97,1.293 -18.35,5.707 -25.31,11.355"
         style="fill:#31328f;fill-opacity:1;fill-rule:evenodd;stroke:none"
         id="path300" /><path
         d="m 1038.18,767.926 22.57,21.156 c -3.68,4.586 -6.7,9.246 -9.01,13.356 l -22.78,-25.528 c 3.25,-2.906 6.3,-5.922 9.22,-8.984"
         style="fill:#31328f;fill-opacity:1;fill-rule:evenodd;stroke:none"
         id="path302" /><path
         d="m 1017.68,682.715 h 24.3 v 36.16 h -24.3 v -36.16"
         style="fill:#31328f;fill-opacity:1;fill-rule:evenodd;stroke:none"
         id="path304" /><path
         d="m 1008.18,792.281 c 2.88,-1.722 5.69,-3.566 8.44,-5.519 l 27.53,30.847 c -2.06,3.047 -6.45,8.555 -13.79,14.266 l -22.18,-39.594"
         style="fill:#31328f;fill-opacity:1;fill-rule:evenodd;stroke:none"
         id="path306" /><path
         d="m 943.277,800.512 c 2.606,1.031 5.27,1.879 7.993,2.59 l -8.532,46.066 c -6.113,-1.094 -11.523,-2.574 -16.285,-4.309 l 16.824,-44.347"
         style="fill:#31328f;fill-opacity:1;fill-rule:evenodd;stroke:none"
         id="path308" /><path
         d="m 891.82,755.695 -27.843,23.45 c -5.297,-3.661 -11.196,-6.297 -17.688,-6.832 -1.215,-0.094 -2.406,0.062 -3.609,0.062 L 883.426,743 c 2.398,3.91 5.179,8.188 8.394,12.695"
         style="fill:#31328f;fill-opacity:1;fill-rule:evenodd;stroke:none"
         id="path310" /><path
         d="m 920.938,766.125 c -10.2,-10.387 -18.469,-22.25 -24.149,-31.492 h 24.149 v 31.492"
         style="fill:#31328f;fill-opacity:1;fill-rule:evenodd;stroke:none"
         id="path312" /><path
         d="m 1017.68,666.961 v -27.418 h -15.75 v 27.418 h -24.742 v -79.332 h -15.754 v 79.332 h -24.739 v -27.418 h -15.757 v 27.418 H 905.973 V 419.574 c 43.113,0 93.246,0 136.007,0 v 247.387 h -24.3"
         style="fill:#31328f;fill-opacity:1;fill-rule:evenodd;stroke:none"
         id="path314" /><path
         d="m 901.492,768.141 c 2.211,2.617 4.563,5.203 7.016,7.754 l -21.164,30.421 c -2.883,-5 -6.805,-10.925 -11.625,-16.464 l 25.773,-21.711"
         style="fill:#31328f;fill-opacity:1;fill-rule:evenodd;stroke:none"
         id="path316" /><path
         d="m 961.434,718.875 h -24.739 v -36.16 h 24.739 v 36.16"
         style="fill:#31328f;fill-opacity:1;fill-rule:evenodd;stroke:none"
         id="path318" /><path
         d="m 961.434,789.004 c -8.786,-0.981 -17.094,-4.488 -24.739,-9.613 v -44.758 h 24.739 v 54.371"
         style="fill:#31328f;fill-opacity:1;fill-rule:evenodd;stroke:none"
         id="path320" /><path
         d="m 920.938,718.875 h -14.965 v -36.16 h 14.965 v 36.16"
         style="fill:#31328f;fill-opacity:1;fill-rule:evenodd;stroke:none"
         id="path322" /><path
         d="m 920.18,786.695 c 2.886,2.356 5.867,4.606 8.976,6.618 l -16.953,44.683 c -8.965,-5.66 -14.012,-11.863 -16.633,-15.91 l 24.61,-35.391"
         style="fill:#31328f;fill-opacity:1;fill-rule:evenodd;stroke:none"
         id="path324" /><path
         d="m 715.078,592.566 h 78.633 v 34.93 h -78.633 v -34.93"
         style="fill:#31328f;fill-opacity:1;fill-rule:evenodd;stroke:none"
         id="path326" /><path
         d="m 663.48,735.535 h 92.852 v 34.918 H 663.48 v -34.918"
         style="fill:#31328f;fill-opacity:1;fill-rule:evenodd;stroke:none"
         id="path328" /><path
         d="m 793.711,579.828 h -30.875 v -34.914 h 30.875 v 34.914"
         style="fill:#31328f;fill-opacity:1;fill-rule:evenodd;stroke:none"
         id="path330" /><path
         d="M 708.578,532.172 H 663.48 V 503.68 h 45.098 v 28.492"
         style="fill:#31328f;fill-opacity:1;fill-rule:evenodd;stroke:none"
         id="path332" /><path
         d="m 769.066,735.535 h 24.645 v 34.918 h -24.645 v -34.918"
         style="fill:#31328f;fill-opacity:1;fill-rule:evenodd;stroke:none"
         id="path334" /><path
         d="M 750.102,579.828 H 663.48 v -34.914 h 86.622 v 34.914"
         style="fill:#31328f;fill-opacity:1;fill-rule:evenodd;stroke:none"
         id="path336" /><path
         d="m 737.645,818.117 h -35.024 v -34.926 h 35.024 v 34.926"
         style="fill:#31328f;fill-opacity:1;fill-rule:evenodd;stroke:none"
         id="path338" /><path
         d="m 750.379,783.191 h 43.332 v 34.926 h -43.332 v -34.926"
         style="fill:#31328f;fill-opacity:1;fill-rule:evenodd;stroke:none"
         id="path340" /><path
         d="m 689.887,783.191 v 34.926 H 663.48 v -34.926 h 26.407"
         style="fill:#31328f;fill-opacity:1;fill-rule:evenodd;stroke:none"
         id="path342" /><path
         d="M 793.711,532.172 H 721.309 V 503.68 h 72.402 v 28.492"
         style="fill:#31328f;fill-opacity:1;fill-rule:evenodd;stroke:none"
         id="path344" /><path
         d="m 702.344,592.566 v 34.93 H 663.48 v -34.93 h 38.864"
         style="fill:#31328f;fill-opacity:1;fill-rule:evenodd;stroke:none"
         id="path346" /><path
         d="m 706.5,687.883 v 34.914 h -43.02 v -34.914 h 43.02"
         style="fill:#31328f;fill-opacity:1;fill-rule:evenodd;stroke:none"
         id="path348" /><path
         d="M 793.711,675.145 H 663.48 v -34.911 h 130.231 v 34.911"
         style="fill:#31328f;fill-opacity:1;fill-rule:evenodd;stroke:none"
         id="path350" /><path
         d="m 719.23,687.883 h 74.481 v 34.914 H 719.23 v -34.914"
         style="fill:#31328f;fill-opacity:1;fill-rule:evenodd;stroke:none"
         id="path352" /><path
         d="m 1250.8,687.883 h 18.74 v 34.914 h -18.74 v -34.914"
         style="fill:#31328f;fill-opacity:1;fill-rule:evenodd;stroke:none"
         id="path354" /><path
         d="m 1151.14,687.883 h 86.93 v 34.914 h -86.93 v -34.914"
         style="fill:#31328f;fill-opacity:1;fill-rule:evenodd;stroke:none"
         id="path356" /><path
         d="m 1246.65,592.566 h 22.89 v 34.93 h -22.89 v -34.93"
         style="fill:#31328f;fill-opacity:1;fill-rule:evenodd;stroke:none"
         id="path358" /><path
         d="M 1246.65,532.172 V 503.68 h 22.89 v 28.492 h -22.89"
         style="fill:#31328f;fill-opacity:1;fill-rule:evenodd;stroke:none"
         id="path360" /><path
         d="m 1151.14,735.535 h 18.41 v 34.918 h -18.41 v -34.918"
         style="fill:#31328f;fill-opacity:1;fill-rule:evenodd;stroke:none"
         id="path362" /><path
         d="m 1182.28,735.535 h 87.26 v 34.918 h -87.26 v -34.918"
         style="fill:#31328f;fill-opacity:1;fill-rule:evenodd;stroke:none"
         id="path364" /><path
         d="m 1242.23,818.117 h -30.88 v -34.926 h 30.88 v 34.926"
         style="fill:#31328f;fill-opacity:1;fill-rule:evenodd;stroke:none"
         id="path366" /><path
         d="m 1254.96,783.191 h 14.58 v 34.926 h -14.58 v -34.926"
         style="fill:#31328f;fill-opacity:1;fill-rule:evenodd;stroke:none"
         id="path368" /><path
         d="m 1269.54,675.145 h -118.4 v -34.911 h 118.4 v 34.911"
         style="fill:#31328f;fill-opacity:1;fill-rule:evenodd;stroke:none"
         id="path370" /><path
         d="m 1198.62,783.191 v 34.926 h -47.48 v -34.926 h 47.48"
         style="fill:#31328f;fill-opacity:1;fill-rule:evenodd;stroke:none"
         id="path372" /><path
         d="m 1233.91,532.172 h -82.77 V 503.68 h 82.77 v 28.492"
         style="fill:#31328f;fill-opacity:1;fill-rule:evenodd;stroke:none"
         id="path374" /><path
         d="m 1233.91,627.496 h -82.77 v -34.93 h 82.77 v 34.93"
         style="fill:#31328f;fill-opacity:1;fill-rule:evenodd;stroke:none"
         id="path376" /><path
         d="m 1237.76,429.422 c 1.57,4.234 6.85,18.281 9.52,25.41 l -13.48,12.121 -43.61,-1.816 -9.57,-17.785 46.03,-19.313 c 3.98,0.508 8.72,1.094 11.11,1.383"
         style="fill:#31328f;fill-opacity:1;fill-rule:evenodd;stroke:none"
         id="path378" /><path
         d="m 1218.83,417.52 c -8.28,3.46 -26.1,10.937 -35.67,14.953 0.8,-7.754 1.95,-18.68 2.64,-25.282 10.23,-3.093 20.43,-6.675 30.41,-10.679 l 2.62,21.008"
         style="fill:#31328f;fill-opacity:1;fill-rule:evenodd;stroke:none"
         id="path380" /><path
         d="m 1192.66,477.988 c 8.29,0.352 26.94,1.121 35.91,1.489 -0.66,3.691 -1.45,8.093 -2.05,11.461 h -33.86 c 0,-2.411 0,-8.215 0,-12.95"
         style="fill:#31328f;fill-opacity:1;fill-rule:evenodd;stroke:none"
         id="path382" /><path
         d="m 1266.75,397.805 -26.12,19.156 c -3.17,-0.398 -6.83,-0.859 -9.18,-1.152 -0.65,-5.215 -2.23,-17.942 -3.04,-24.403 12.38,-5.386 24.32,-11.199 35.58,-17.125 l 2.76,23.524"
         style="fill:#31328f;fill-opacity:1;fill-rule:evenodd;stroke:none"
         id="path384" /><path
         d="m 1169.82,437.656 c -5.35,-0.707 -13.14,-1.738 -18.68,-2.492 v -19.773 c 7.11,-1.137 14.29,-2.739 21.47,-4.551 l -2.79,26.816"
         style="fill:#31328f;fill-opacity:1;fill-rule:evenodd;stroke:none"
         id="path386" /><path
         d="m 1167.7,450.227 c 0.18,0.339 0.42,0.773 0.68,1.261 l -0.11,1.047 0.54,-0.23 c 2.94,5.449 9.01,16.738 11.12,20.652 v 17.981 h -28.79 v -42.911 c 7.05,0.938 14.19,1.895 16.56,2.2"
         style="fill:#31328f;fill-opacity:1;fill-rule:evenodd;stroke:none"
         id="path388" /><path
         d="m 1242.01,476.691 c 3.98,-3.57 14.53,-13.062 17.16,-15.433 2.57,0.156 13.56,0.847 22.57,1.402 -4.7,12.633 -8.48,22.801 -10.52,28.278 h -31.77 l 2.56,-14.247"
         style="fill:#31328f;fill-opacity:1;fill-rule:evenodd;stroke:none"
         id="path390" /><path
         d="m 1305.23,399.574 c -9.94,-1.66 -21.96,-3.66 -25.95,-4.324 -0.66,-5.535 -2.46,-20.879 -3.24,-27.465 22.08,-12.23 40.69,-24.219 53.17,-32.711 -4.29,11.559 -13.8,37.114 -23.98,64.5"
         style="fill:#31328f;fill-opacity:1;fill-rule:evenodd;stroke:none"
         id="path392" /><path
         d="m 1250.02,425.871 25.09,-18.406 c 7.53,1.25 18.94,3.156 25.58,4.265 -3.71,10 -7.44,19.985 -10.94,29.418 -1.65,3.938 -3.04,7.266 -3.76,9.016 -5.09,-0.305 -20.31,-1.258 -27.5,-1.719 l -8.47,-22.574"
         style="fill:#31328f;fill-opacity:1;fill-rule:evenodd;stroke:none"
         id="path394" /><path
         d="m 1188.23,545.07 v 34.758 h -37.09 v -34.914 h 37.09 v 0.156"
         style="fill:#31328f;fill-opacity:1;fill-rule:evenodd;stroke:none"
         id="path396" /><path
         d="m 1200.96,579.828 v -34.914 h 68.58 v 34.914 h -68.58"
         style="fill:#31328f;fill-opacity:1;fill-rule:evenodd;stroke:none"
         id="path398" /><path
         d="m 707.16,419.961 c -2.347,0.297 -6.015,0.758 -9.187,1.156 l -26.114,-19.16 2.946,-25.016 c 11.351,5.801 23.3,11.465 35.648,16.633 -0.672,5.387 -2.562,20.555 -3.293,26.387"
         style="fill:#31328f;fill-opacity:1;fill-rule:evenodd;stroke:none"
         id="path400" /><path
         d="m 688.508,429.961 -9.07,22.668 c -8.286,0.457 -25.422,1.414 -30.774,1.723 -2.297,-6.125 -10.726,-28.602 -14.309,-38.161 6.629,-1.046 20.524,-3.23 29.125,-4.597 l 25.028,18.367"
         style="fill:#31328f;fill-opacity:1;fill-rule:evenodd;stroke:none"
         id="path402" /><path
         d="m 745.949,490.938 h -35.375 c -0.238,-1.903 -0.582,-4.614 -0.914,-7.278 8.672,-0.367 27.918,-1.168 36.289,-1.519 0,2.871 0,6.121 0,8.797"
         style="fill:#31328f;fill-opacity:1;fill-rule:evenodd;stroke:none"
         id="path404" /><path
         d="m 758.684,477.109 c 1.98,-3.679 7.445,-13.836 10.543,-19.589 l 0.14,0.062 -0.019,-0.277 c 0.652,-1.215 1.207,-2.246 1.57,-2.922 3.094,-0.418 14.273,-1.91 22.793,-3.035 v 39.59 h -35.027 v -13.829"
         style="fill:#31328f;fill-opacity:1;fill-rule:evenodd;stroke:none"
         id="path406" /><path
         d="m 754.883,437.258 c -9.469,-4.172 -27,-11.91 -35.113,-15.496 l 2.91,-23.309 c 9.816,3.754 19.777,7.141 29.777,9.969 0.496,5.988 1.652,19.695 2.426,28.836"
         style="fill:#31328f;fill-opacity:1;fill-rule:evenodd;stroke:none"
         id="path408" /><path
         d="m 700.77,433.598 c 2.355,-0.297 7.121,-0.899 11.136,-1.387 l 45.633,20.156 -9.109,16.926 -43.617,1.812 -14.008,-12.617 c 2.433,-6.074 8.242,-20.582 9.965,-24.89"
         style="fill:#31328f;fill-opacity:1;fill-rule:evenodd;stroke:none"
         id="path410" /><path
         d="m 659.348,399.363 c -4.45,0.703 -18.946,2.996 -29.758,4.703 -10.852,-29.171 -21.235,-57.082 -25.781,-69.3 13.546,9.218 34.339,22.543 58.925,35.82 -0.648,5.492 -2.683,22.789 -3.386,28.777"
         style="fill:#31328f;fill-opacity:1;fill-rule:evenodd;stroke:none"
         id="path412" /><path
         d="m 679.426,465.398 c 2.582,2.325 12.941,11.649 17.035,15.329 l 1.277,10.211 H 661.91 c -1.762,-4.75 -4.949,-13.309 -8.957,-24.079 10.426,-0.57 23.766,-1.308 26.473,-1.461"
         style="fill:#31328f;fill-opacity:1;fill-rule:evenodd;stroke:none"
         id="path414" /><path
         d="m 765.52,411.793 c 9.39,2.168 18.742,3.801 27.953,4.738 -0.391,5.832 -1.133,16.973 -1.481,22.188 -4.957,0.66 -16.965,2.261 -23.941,3.199 l -2.531,-30.125"
         style="fill:#31328f;fill-opacity:1;fill-rule:evenodd;stroke:none"
         id="path416" /></g></g></svg>
